<svg width="177" height="77" viewBox="0 0 177 77" fill="none" xmlns="http://www.w3.org/2000/svg">
<g clip-path="url(#clip0_445_618)">
<path fill-rule="evenodd" clip-rule="evenodd" d="M46.0716 12.7641C46.2809 12.9598 46.4715 13.1744 46.6433 13.4078C46.8152 13.6336 46.9609 13.8783 47.0805 14.1418C47.2076 14.3978 47.3084 14.665 47.3832 14.9436C45.6233 17.3264 46.2174 28.6755 40.6798 28.1448C40.2538 28.2803 39.8167 28.3744 39.3683 28.4271C38.9274 28.4873 38.4827 28.5061 38.0343 28.4836C37.5934 28.461 37.1525 28.397 36.7116 28.2916C36.2782 28.1862 35.8559 28.0469 35.4449 27.8738L34.5706 26.5186C33.1245 25.5813 32.9564 24.8586 31.6224 23.91L27.7775 18.2298C27.856 17.6425 28.0466 17.0779 28.0466 16.4794C26.4212 13.8934 28.551 9.38757 30.1428 7.58074C32.026 5.41254 33.9877 2.70228 37.3954 2.23928L40.0297 2.99589C40.7097 2.85285 41.386 2.70228 42.0586 2.54418C42.7312 2.38609 43.4038 2.22046 44.0763 2.04731C44.7489 1.86662 45.4178 1.68217 46.0829 1.49396C46.748 1.29822 47.4131 1.09495 48.0782 0.884155C48.8292 0.61313 50.69 0.229177 51.0599 1.22294C51.6877 2.84909 47.7419 2.25057 47.1926 4.78014C45.3991 6.40629 45.6905 9.85057 45.3991 12.2333C45.6382 12.3839 45.8624 12.5608 46.0716 12.7641ZM0.0449219 34.6494C1.54701 32.7296 1.31161 29.387 4.64087 29.2966C5.01079 30.042 4.55119 29.6128 5.45917 29.9177L5.76183 29.3644C5.88887 29.2063 5.99723 29.0407 6.08691 28.8675C6.17659 28.6868 6.25505 28.5024 6.32231 28.3142C6.3821 28.126 6.4232 27.9302 6.44562 27.7269C6.47551 27.5312 6.48672 27.3317 6.47925 27.1284H7.90287C8.04859 24.1246 7.88045 23.0518 8.92295 21.8096C8.92295 21.9112 9.28165 21.4934 9.28165 21.595C9.3788 21.723 9.46848 21.851 9.55068 21.979C9.64036 22.1145 9.71883 22.2537 9.78609 22.3968C9.86082 22.5398 9.92434 22.6829 9.97665 22.8259C10.029 22.9765 10.0738 23.127 10.1112 23.2776C11.1761 26.2024 15.2115 33.0684 18.6865 33.5314C22.3184 35.9706 30.6584 30.0758 31.2301 37.0434C33.0685 40.3522 27.2955 44.4402 25.6253 45.2758C25.2815 45.3888 24.9378 45.4904 24.594 45.5807C24.2502 45.6786 23.9027 45.7689 23.5515 45.8518C23.2077 45.9346 22.8565 46.0099 22.4978 46.0776C22.1466 46.1454 21.7953 46.2094 21.4441 46.2696C12.4091 48.6298 0.10097 40.8943 0.0449219 34.6494ZM62.3704 27.2639C72.4255 25.7056 83.041 28.1222 84.0274 38.6696C82.5814 40.2844 84.1956 41.7412 81.1466 42.2268C81.0195 42.287 80.8925 42.336 80.7654 42.3736C80.6309 42.4112 80.4964 42.4451 80.3619 42.4752C80.2274 42.4978 80.0929 42.5091 79.9583 42.5091C79.8238 42.5166 79.6893 42.5129 79.5548 42.4978C79.5473 42.5656 79.5398 42.6333 79.5324 42.7011C79.5324 42.7688 79.5324 42.8366 79.5324 42.9044C79.5324 42.9796 79.5324 43.0512 79.5324 43.1189C79.5398 43.1867 79.5473 43.2544 79.5548 43.3222C79.5025 43.3975 79.4464 43.469 79.3867 43.5368C79.3194 43.597 79.2521 43.6572 79.1849 43.7174C79.1101 43.7701 79.0317 43.8153 78.9495 43.8529C78.8673 43.8906 78.7813 43.9245 78.6917 43.9546C78.3927 44.0449 78.0863 44.124 77.7725 44.1917C77.4661 44.267 77.1522 44.3272 76.8309 44.3724C76.517 44.4251 76.2031 44.4628 75.8892 44.4853C75.5679 44.5155 75.2503 44.5343 74.9364 44.5418C71.7417 44.0336 73.2438 43.8417 71.1476 44.395C71.1177 44.2745 71.0878 44.1541 71.0579 44.0336C71.028 43.9207 71.0019 43.804 70.9794 43.6836C70.9495 43.5631 70.9234 43.4426 70.901 43.3222C70.8785 43.2017 70.8561 43.0813 70.8337 42.9608C68.603 37.3822 57.1692 37.8001 50.5667 38.2856C50.3649 38.1351 50.1856 37.9619 50.0286 37.7662C49.8717 37.578 49.7335 37.3709 49.6139 37.1451C49.4943 36.9267 49.3972 36.6971 49.3224 36.4562C49.2552 36.2153 49.2066 35.9706 49.1767 35.7222C49.1393 35.5265 49.1207 35.3269 49.1207 35.1237C49.1132 34.9204 49.1244 34.7209 49.1543 34.5252C49.1842 34.3219 49.2328 34.1262 49.3 33.9379C49.3598 33.7497 49.4383 33.5653 49.5354 33.3846C49.6774 33.1813 49.8269 32.9818 49.9838 32.7861C50.1407 32.5979 50.3089 32.4134 50.4882 32.2327C50.6601 32.0596 50.8432 31.894 51.0375 31.7359C51.2243 31.5702 51.4224 31.4197 51.6316 31.2842C52.4238 30.7496 53.2495 30.264 54.1089 29.8274C54.9609 29.3907 55.8352 29.003 56.732 28.6642C57.6362 28.333 58.5517 28.0544 59.4784 27.8286C60.4125 27.6027 61.3578 27.4333 62.3144 27.3204L62.3704 27.2639ZM75.7659 71.2152C75.2391 71.7798 75.2615 72.9204 74.6338 73.485C74.006 74.061 73.3559 73.7222 72.5488 74.061C69.5558 75.3371 69.8697 76.6696 65.5428 76.3534C65.0607 75.4274 59.0188 70.628 57.5615 70.628C57.0795 70.7296 55.8689 70.0182 55.8689 69.8262C55.8689 69.6342 55.611 69.1373 55.611 68.9454C56.0706 68.4372 56.4293 68.2226 56.4293 65.5124C55.9922 64.8574 56.4742 63.3893 55.9922 62.757C55.555 62.757 55.0954 60.442 54.4004 59.6176C53.7951 59.4482 52.4948 57.2009 52.0127 56.7718C50.477 55.4957 48.3808 54.7617 47.4616 52.921C47.6074 52.921 47.4616 52.65 47.4616 52.65C48.4481 50.8206 49.0086 51.1142 50.5331 49.9397C61.2831 50.3124 75.7884 60.4758 75.7659 71.2152ZM36.6331 53.0678C38.4939 55.3489 39.2226 64.225 37.1376 67.9742C36.876 68.4033 36.5995 68.8249 36.3081 69.239C36.0166 69.653 35.714 70.0558 35.4001 70.4473C35.0787 70.8388 34.7462 71.219 34.4024 71.5879C34.0587 71.9492 33.7 72.3031 33.3263 72.6494C32.3959 73.4286 31.3198 73.3157 30.2997 74.0158C29.8962 74.3546 29.4702 74.6482 28.9994 74.8853C28.5398 75.1338 28.0466 75.3145 27.5421 75.45C27.0377 75.5855 26.5221 75.6645 26.0064 75.6871C25.4796 75.7097 24.9639 75.6645 24.4483 75.5742L21.6235 75.7662C21.2087 75.6532 19.7627 74.8966 19.2806 74.795L16.7361 74.987C16.6352 74.603 16.5007 74.2304 16.3773 73.869L14.2924 73.9932C13.7207 73.7222 13.7655 72.6268 13.0145 71.8928C12.2634 71.1475 11.8599 71.633 11.4675 70.2892C12.0729 69.0696 10.4475 64.3718 10.1336 62.2714C9.7973 61.1986 9.62915 61.0066 9.9206 61.0066C14.2475 64.8009 22.9462 62.8134 27.1274 58.9061C27.4637 58.5297 27.7925 58.1458 28.1138 57.7543C28.4352 57.3628 28.749 56.9638 29.0554 56.5573C29.3544 56.1432 29.6458 55.7254 29.9298 55.3038C30.2063 54.8822 30.4753 54.453 30.7369 54.0164C31.1965 53.2824 32.8667 53.0339 33.4832 52.4015C35.0638 52.2096 35.9269 52.2321 36.6331 53.0678Z" fill="white"/>
<path fill-rule="evenodd" clip-rule="evenodd" d="M137.497 27.9754C146.42 27.9754 152.44 33.6557 152.44 43.8078C152.44 56.5799 144.077 60.3516 135.468 60.3516H123.844V27.998L137.497 27.9754ZM134.885 54.2197C139.818 54.2197 143.808 52.5822 143.808 43.8191C143.808 36.3772 139.818 33.8928 134.885 33.8928H132.296V54.2197H134.885ZM165.084 55.3377C165.084 57.6978 165.219 60.2839 165.219 60.2839H156.576V27.998H176.966V34.3106C176.966 34.3106 172.404 34.209 170.857 34.209H165.084V40.6007H175.666V46.5632H165.084V55.3377ZM109.081 53.6438C109.888 53.5308 110.672 53.3389 111.457 53.0904C112.231 52.8307 112.982 52.5145 113.71 52.1418C114.428 51.7692 115.123 51.34 115.784 50.8545C116.109 51.3739 118.766 56.1507 119.102 56.6815C118.037 57.4268 116.927 58.0818 115.762 58.6351C114.585 59.1998 113.374 59.6628 112.141 60.0129C110.897 60.3742 109.619 60.6227 108.341 60.7695C107.052 60.9163 105.763 60.9614 104.474 60.8937C95.4386 60.8937 90.2598 54.7279 90.2598 44.4289C90.2598 28.9579 100.483 27.2979 104.888 27.2979C114.461 27.2979 119.102 32.6619 119.102 43.6949V46.1341C115.694 46.247 113.901 46.247 109.552 46.247C106.996 46.247 99.4517 46.4277 99.4517 46.4277V46.7891C99.418 47.7377 99.5862 48.6863 99.9449 49.5671C100.292 50.4479 100.83 51.2384 101.503 51.9047C102.187 52.571 102.994 53.0791 103.879 53.4066C104.754 53.7341 105.707 53.8809 106.648 53.8244C107.455 53.8244 108.274 53.768 109.081 53.6438ZM99.4292 40.6007H110.034V40.2167C110.034 38.0146 109.652 33.9041 104.956 33.9041C100.248 33.9041 99.575 38.3534 99.4517 40.2167L99.4292 40.6007Z" fill="white"/>
</g>
<defs>
<clipPath id="clip0_445_618">
<rect width="177" height="76" fill="white" transform="translate(0 0.5)"/>
</clipPath>
</defs>
</svg>
