<svg width="136" height="131" viewBox="0 0 136 131" fill="none" xmlns="http://www.w3.org/2000/svg">
<g clip-path="url(#clip0_509_633)">
<path d="M133.372 65.6093C133.372 31.1045 104.11 3.1329 68.0124 3.13293C31.915 3.13297 2.65234 31.1047 2.65234 65.6093C2.65234 100.114 31.915 128.086 68.0124 128.086C104.11 128.086 133.372 100.114 133.372 65.6093Z" fill="#509131"/>
<path d="M79.8081 16.2629H40.2542C36.5068 16.2629 33.4688 19.1537 33.4688 22.7197V84.9626C33.4688 88.5284 36.5068 91.4194 40.2542 91.4194H79.8081C83.5555 91.4194 86.5938 88.5284 86.5938 84.9626V22.7197C86.5938 19.1537 83.5555 16.2629 79.8081 16.2629Z" fill="#335A20"/>
<path d="M51.0056 80.1414C48.7074 80.1414 46.8235 78.3549 46.8235 76.1759V28.0034C46.8235 25.8243 48.7074 24.0379 51.0056 24.0379H118.891C116.332 21.2185 113.522 18.6196 110.487 16.2629H46.6533C42.908 16.2629 39.8438 19.1684 39.8438 22.7197V84.9626C39.8438 88.5137 42.908 91.4194 46.6533 91.4194H129.343C131.029 87.8251 132.379 84.0531 133.344 80.147H51.0056V80.1414Z" fill="#E4F8F6"/>
<path d="M46.75 27.8643V76.2632C46.75 78.4524 48.6315 80.2475 50.9267 80.2475H133.164C134.32 75.5386 134.938 70.6301 134.938 65.5814C134.938 49.65 128.828 35.0757 118.729 23.8801H50.9324C48.6372 23.8801 46.7557 25.6749 46.7557 27.8643H46.75Z" fill="#193F79"/>
<path d="M108.906 91.4194H79.1562V105.13H108.906V91.4194Z" fill="#335A20"/>
<path d="M115.281 91.4194H86.0625V105.13H115.281V91.4194Z" fill="#779CB2"/>
<path d="M20.346 109.193H35.5937L28.0524 85.3257H15.0585C11.7404 85.3257 9.36131 88.3071 10.3004 91.2828L20.346 109.193Z" fill="#335A20"/>
<path d="M29.8281 118.333H106.166C110.053 115.664 113.646 112.597 116.875 109.193H19.125C22.3546 112.597 25.9469 115.664 29.8338 118.333H29.8281Z" fill="#FF895F"/>
<path d="M108.257 99.5444H76.3422C70.5617 99.5444 65.875 103.864 65.875 109.193H110.862C112.825 107.264 114.658 105.221 116.344 103.069C114.426 100.917 111.516 99.5444 108.257 99.5444Z" fill="#335A20"/>
<path d="M68.0027 129.505C82.2152 129.505 95.3992 125.374 106.25 118.333H29.75C40.6064 125.374 53.7848 129.505 67.9973 129.505H68.0027Z" fill="#C14530"/>
<path d="M114.1 99.5444H82.186C76.4054 99.5444 71.7188 103.864 71.7188 109.193H116.706C118.669 107.264 120.501 105.221 122.188 103.069C120.27 100.917 117.36 99.5444 114.1 99.5444Z" fill="#E4F8F6"/>
<path d="M13.882 91.134C17.2768 91.134 20.0333 93.7264 20.0333 96.9317C20.0333 100.137 17.2824 102.729 13.882 102.729C13.7238 102.729 13.5657 102.719 13.4132 102.708C15.1473 104.987 17.0339 107.153 19.0674 109.193H20.1406L27.625 85.3257H10.6623C9.16539 85.3257 7.84927 86.2519 7.42565 87.6042L6.375 90.9477C6.95114 92.2091 7.56686 93.4497 8.22773 94.6638C9.16539 92.5874 11.3457 91.134 13.8876 91.134H13.882Z" fill="white"/>
<path d="M20.1875 96.754C20.1875 93.5294 17.4654 90.9116 14.1006 90.9116C11.5853 90.9116 9.42225 92.3762 8.5 94.4683C10.0035 97.2958 11.7251 100.005 13.6367 102.569C13.7932 102.58 13.9441 102.591 14.1006 102.591C17.4598 102.591 20.1875 99.9781 20.1875 96.7484V96.754Z" fill="#EAE7E5"/>
<path d="M67.9984 2.63861C104.379 2.63858 133.872 30.8301 133.872 65.6063C133.872 100.382 104.379 128.573 67.9989 128.573C31.6177 128.573 2.12501 100.382 2.125 65.6063C2.125 30.8302 31.6177 2.63865 67.9984 2.63861Z" stroke="#0D1544" stroke-width="8"/>
<path d="M107.923 53.4887L108.947 54.517L107.046 56.4266L108.947 58.3362L107.923 59.3644L106.022 57.4548L104.121 59.3644L103.098 58.3362L104.999 56.4266L103.098 54.517L104.121 53.4887L106.022 55.3983L107.923 53.4887Z" fill="#EE1822"/>
<path d="M107.923 63.0367L108.947 64.065L107.046 65.9746L108.947 67.8842L107.923 68.9124L106.022 67.0028L104.121 68.9124L103.098 67.8842L104.999 65.9746L103.098 64.065L104.121 63.0367L106.022 64.9463L107.923 63.0367Z" fill="#EE1822"/>

<g clip-path="url(#clip1_509_633)">
<path d="M57.0312 40.053H68.2449V32.4666H57.0312V40.053ZM71.0434 33.4138V35.3126H90.6657V33.4138H71.0434ZM71.0434 39.1058H90.6657V37.207H71.0434V39.1058ZM71.0434 44.7979H90.6657V42.8991H71.0434V44.7979ZM71.0434 48.5912H90.6657V46.6923H71.0434V48.5912ZM57.0312 49.5428H68.2449V41.9519H57.0312V49.5428Z" fill="white"/>
</g>

<g>
<path d="M125.956 126.683L95.2695 107.683L100.224 100.415L130.911 119.415C132.718 120.534 133.07 123.066 131.705 125.074C130.335 127.081 127.763 127.802 125.962 126.683H125.956Z" fill="#CC0816"/>
<path fill-rule="evenodd" clip-rule="evenodd" d="M104.486 94.1103C104.486 105.926 94.4159 115.504 81.9931 115.504C69.5704 115.504 59.5 105.926 59.5 94.1103C59.5 82.295 69.5704 72.7167 81.9931 72.7167C94.4159 72.7167 104.486 82.295 104.486 94.1103ZM98.1915 94.1103C98.1915 102.619 90.9394 109.517 81.9931 109.517C73.0474 109.517 65.7953 102.619 65.7953 94.1103C65.7953 85.6019 73.0474 78.7038 81.9931 78.7038C90.9394 78.7038 98.1915 85.6019 98.1915 94.1103Z" fill="#EE1822"/>
<path opacity="0.8" d="M81.9947 109.517C90.9409 109.517 98.193 102.619 98.193 94.1103C98.193 85.6019 90.9409 78.7038 81.9947 78.7038C73.049 78.7038 65.7969 85.6019 65.7969 94.1103C65.7969 102.619 73.049 109.517 81.9947 109.517Z" fill="#42ACB6"/>
<path opacity="0.8" d="M81.9947 84.4314C89.9092 84.4314 96.4952 89.8366 97.9083 96.9713C98.09 96.0425 98.193 95.0853 98.193 94.1103C98.193 85.6024 90.9399 78.7038 81.9947 78.7038C73.05 78.7038 65.7969 85.6024 65.7969 94.1103C65.7969 95.0909 65.8999 96.0425 66.0816 96.9713C67.4948 89.8305 74.0807 84.4314 81.9947 84.4314Z" fill="#9CDDE0"/>
<path opacity="0.2" d="M81.216 101.603C76.243 101.026 72.5381 97.1556 72.2283 92.5645C72.0403 93.1353 71.9011 93.7294 71.8225 94.3408C71.1372 99.6881 75.1396 104.545 80.7613 105.196C86.383 105.848 91.4894 102.041 92.1747 96.6946C92.2533 96.0771 92.2655 95.4717 92.2294 94.8776C90.7679 99.261 86.1949 102.174 81.2224 101.603H81.216Z" fill="white"/>
<path d="M126.955 130.069L99.75 113.226L107.167 102.348L134.372 119.19C136.179 120.309 136.531 122.841 135.166 124.849L132.704 128.459C131.334 130.467 128.762 131.188 126.961 130.069H126.955Z" fill="#DEEDEF"/>
<path d="M132.703 128.459L135.165 124.849C136.536 122.841 136.178 120.309 134.371 119.19L133.995 118.953L126.578 129.832L126.954 130.068C128.761 131.188 131.332 130.467 132.697 128.459H132.703Z" fill="#EE1822"/>
<path d="M135.326 124.145L135.836 123.395C135.8 123.516 135.763 123.643 135.721 123.764C136.363 121.999 135.866 120.113 134.374 119.184L133.998 118.948L129.426 125.656L129.584 125.754C131.391 126.873 133.962 126.152 135.326 124.145Z" fill="#EE1822"/>
<path d="M135.715 123.77C135.673 123.891 135.624 124.006 135.57 124.122C135.624 124.006 135.673 123.885 135.715 123.77Z" fill="#EE1822"/>
<path d="M135.164 124.849C135.243 124.727 135.322 124.612 135.389 124.485C135.322 124.606 135.243 124.727 135.164 124.849Z" fill="#C2D6D8"/>
<path d="M129.425 125.662L102.602 109.056L99.7578 113.226L126.957 130.068L126.581 129.832L129.425 125.662Z" fill="#C2D6D8"/>
<path d="M135.525 124.214C135.537 124.185 135.556 124.156 135.568 124.128C135.622 124.012 135.671 123.891 135.713 123.776C135.756 123.654 135.798 123.527 135.829 123.406L135.319 124.156C133.948 126.163 131.377 126.885 129.576 125.766L129.419 125.667L126.574 129.844L126.95 130.08C128.757 131.199 131.329 130.478 132.693 128.471L135.156 124.86C135.234 124.739 135.313 124.618 135.38 124.497C135.429 124.404 135.477 124.318 135.519 124.226L135.525 124.214Z" fill="#CC0816"/>
<!-- Animation de la loupe : grossissement et rétrécissement -->
  <animateTransform 
    attributeName="transform"
    attributeType="XML"
    type="rotate"
    from="0 40 40"
    to="-2 40 40"
    dur="2s"
    keyTimes="0;0.5;1"
    values="0 40 40;5 40 40;-5 40 40"
    repeatCount="indefinite"
    begin="0s"
  />
</g>

<g clip-path="url(#clip2_509_633)">
<path d="M46.2305 34.3056L19.2979 15.193L10.396 27.8502L37.3293 46.9628L46.2305 34.3056Z" fill="#FFCE31"/>
<path d="M3.24837 14.5013L4.38221 12.8896C6.53054 9.8359 10.7101 9.1143 13.8223 11.2598L19.3114 15.1562L10.36 27.8801L4.87089 23.9838C1.83078 21.8258 1.10003 17.5551 3.24837 14.5013Z" fill="#ED4C5C"/>
<path d="M22.7151 17.6313L19.2525 15.1722L10.3489 27.8283L13.8113 30.2867L22.7151 17.6313Z" fill="#93A2AA"/>
<path d="M21.7853 18.9505L18.3228 16.4921L11.3173 26.4491L14.7811 28.9065L21.7853 18.9505Z" fill="#C7D3D8"/>
<path d="M46.2496 34.2782L53.0392 45.775L50.3537 49.5922L37.2982 47.0021L46.2496 34.2782Z" fill="#FED0AC"/>
<path d="M54.2026 47.8097C55.1484 49.435 54.4199 50.3805 52.579 50.0276L46.286 48.8039L50.881 42.2723L54.2026 47.8097Z" fill="#D93A3A"/>
<path d="M46.267 34.3313L22.74 17.631L19.7861 21.8299L43.3131 38.5302L46.267 34.3313Z" fill="#FFDF85"/>
<path d="M40.2827 42.7917L16.7557 26.0914L13.8017 30.2903L37.3287 46.9906L40.2827 42.7917Z" fill="#FF8736"/>
<!-- Animation du crayon de gauche à droite -->
  <animateTransform attributeName="transform"
    attributeType="XML"
    type="translate"
    from="-2 0" 
    to="10 0"
    dur="2s"
    repeatCount="indefinite"/>
</g>

<path d="M103.391 45.4096L105.292 47.3192L109.387 43.2062L110.41 44.2344L105.292 49.3757L102.367 46.4378L103.391 45.4096Z" fill="#509131"/>
<path d="M103.391 34.3926L105.292 36.3022L109.387 32.1892L110.41 33.2175L105.292 38.3587L102.367 35.4208L103.391 34.3926Z" fill="#509131"/>
<path d="M57.0312 59.8834H68.2449V52.2969H57.0312V59.8834ZM71.0434 53.2441V55.143H90.6657V53.2441H71.0434ZM71.0434 58.9362H90.6657V57.0374H71.0434V58.9362ZM71.0434 64.6283H90.6657V62.7295H71.0434V64.6283ZM71.0434 68.4216H90.6657V66.5227H71.0434V68.4216ZM57.0312 69.3732H68.2449V61.7823H57.0312V69.3732Z" fill="white"/>

<g id="head" transform="translate(50, 100)"> <!-- Translation pour centrer la tête -->
  <rect width="38.6753" height="15.7232" transform="matrix(0.994403 -0.105658 0.14291 0.989736 7.36328 90.4167)" fill="#FBDE48"/>
  <path d="M3.12712 100.776L3.50542 100.217L3.44785 99.5334C2.56986 89.1005 11.3342 79.3644 24.3224 77.9843C37.7025 76.5626 49.2754 84.7052 50.8288 95.4632C51.9584 103.287 47.6367 110.721 40.0283 114.856L38.8622 115.49L39.0544 116.821L40.8938 129.56L19.2625 131.858L18.1889 124.423L17.9031 122.443L15.9143 122.655L12.2558 123.043C9.00565 123.389 6.61407 121.437 6.30733 119.312L4.9479 109.897L4.66208 107.918L2.67328 108.129L-2.19867 108.647L3.12712 100.776ZM10.5861 99.7391C11.0316 102.824 14.1495 104.557 16.9723 104.257C19.3983 103.999 21.6087 102.24 21.8995 99.792C22.8776 102.105 25.5216 103.348 27.9476 103.091C30.3736 102.833 32.584 101.074 32.8747 98.6258C33.8529 100.939 36.4969 102.182 38.9229 101.925C41.7456 101.625 44.2766 99.2919 43.8311 96.2067C43.3856 93.1215 40.2677 91.389 37.4449 91.689C35.019 91.9467 32.8085 93.7059 32.5178 96.1538C31.5396 93.8407 28.8956 92.5974 26.4697 92.8551C24.0437 93.1129 21.8333 94.8721 21.5425 97.32C20.5643 95.0069 17.9204 93.7635 15.4944 94.0213C12.6716 94.3212 10.1406 96.6539 10.5861 99.7391Z" fill="#FEFEFE" stroke="#0D1544" stroke-width="4"/>
  <!-- Animation de rotation de la tête -->
  <animateTransform 
    attributeName="transform"
    attributeType="XML"
    type="rotate"
    from="-5 40 40"
    to="0 40 40"
    dur="2s"
    repeatCount="indefinite"
    begin="0s"
    fill="freeze"
  />
</g>
</g>

<defs>
  <clipPath id="clip0_509_633">
  <rect width="136" height="130" fill="white" transform="translate(0 0.6073)"/>
  </clipPath>

  <clipPath id="clip1_509_633">
  <rect width="33.6344" height="22.7684" fill="white" transform="translate(57.0312 29.2514)"/>
  </clipPath>

  <clipPath id="clip2_509_633">
  <rect width="46.8017" height="46.9996" fill="white" transform="matrix(-0.985422 0.17013 0.168657 0.985675 46.8516 3.54517)"/>
  </clipPath>
</defs>

</svg>

