<svg width="136" height="131" viewBox="0 0 136 131" fill="none" xmlns="http://www.w3.org/2000/svg">
<path d="M133.372 65.6093C133.372 31.1045 104.11 3.1329 68.0124 3.13293C31.915 3.13297 2.65234 31.1047 2.65234 65.6093C2.65234 100.114 31.915 128.086 68.0124 128.086C104.11 128.086 133.372 100.114 133.372 65.6093Z" fill="#509131"/>
<path d="M79.8081 16.2629H40.2542C36.5068 16.2629 33.4688 19.1537 33.4688 22.7197V84.9626C33.4688 88.5284 36.5068 91.4194 40.2542 91.4194H79.8081C83.5555 91.4194 86.5938 88.5284 86.5938 84.9626V22.7197C86.5938 19.1537 83.5555 16.2629 79.8081 16.2629Z" fill="#335A20"/>
<path d="M51.0056 80.1414C48.7074 80.1414 46.8235 78.3549 46.8235 76.1759V28.0034C46.8235 25.8243 48.7074 24.0379 51.0056 24.0379H118.891C116.332 21.2185 113.522 18.6196 110.487 16.2629H46.6533C42.908 16.2629 39.8438 19.1684 39.8438 22.7197V84.9626C39.8438 88.5137 42.908 91.4194 46.6533 91.4194H129.343C131.029 87.8251 132.379 84.0531 133.344 80.147H51.0056V80.1414Z" fill="#E4F8F6"/>
<path d="M46.75 27.8643V76.2632C46.75 78.4524 48.6315 80.2475 50.9267 80.2475H133.164C134.32 75.5386 134.938 70.6301 134.938 65.5814C134.938 49.65 128.828 35.0757 118.729 23.8801H50.9324C48.6372 23.8801 46.7557 25.6749 46.7557 27.8643H46.75Z" fill="#193F79"/>
<path d="M108.906 91.4194H79.1562V105.13H108.906V91.4194Z" fill="#335A20"/>
<path d="M115.281 91.4194H86.0625V105.13H115.281V91.4194Z" fill="#779CB2"/>
<path d="M96.6763 35.5598H46.75V58.3704H62.0272C63.3957 58.3704 64.5081 59.4216 64.5081 60.715V67.0789C64.5081 68.6526 65.7284 70.0588 67.3875 70.2101C69.2925 70.3822 70.8948 68.9705 70.8948 67.2084V60.715C70.8948 59.4216 72.0067 58.3704 73.3752 58.3704C74.7442 58.3704 75.8561 59.4216 75.8561 60.7201C75.8444 67.7635 75.8391 73.4596 75.8391 73.4596C75.8391 75.243 77.3728 76.6928 79.2604 76.6928C81.1479 76.6928 82.6822 75.243 82.6822 73.4596C82.6822 73.4596 82.6822 64.9558 82.6705 60.715C82.6705 59.416 83.7771 58.3704 85.1514 58.3704H96.6875V35.5598H96.6763Z" fill="#FFCE23"/>
<path d="M20.346 109.193H35.5937L28.0524 85.3257H15.0585C11.7404 85.3257 9.36131 88.3071 10.3004 91.2828L20.346 109.193Z" fill="#335A20"/>
<path d="M29.8281 118.333H106.166C110.053 115.664 113.646 112.597 116.875 109.193H19.125C22.3546 112.597 25.9469 115.664 29.8338 118.333H29.8281Z" fill="#FF895F"/>
<path d="M108.257 99.5444H76.3422C70.5617 99.5444 65.875 103.864 65.875 109.193H110.862C112.825 107.264 114.658 105.221 116.344 103.069C114.426 100.917 111.516 99.5444 108.257 99.5444Z" fill="#335A20"/>
<path d="M68.0027 129.505C82.2152 129.505 95.3992 125.374 106.25 118.333H29.75C40.6064 125.374 53.7848 129.505 67.9973 129.505H68.0027Z" fill="#C14530"/>
<path d="M114.1 99.5444H82.186C76.4054 99.5444 71.7188 103.864 71.7188 109.193H116.706C118.669 107.264 120.501 105.221 122.188 103.069C120.27 100.917 117.36 99.5444 114.1 99.5444Z" fill="#E4F8F6"/>
<path d="M13.882 91.134C17.2768 91.134 20.0333 93.7264 20.0333 96.9317C20.0333 100.137 17.2824 102.729 13.882 102.729C13.7238 102.729 13.5657 102.719 13.4132 102.708C15.1473 104.987 17.0339 107.153 19.0674 109.193H20.1406L27.625 85.3257H10.6623C9.16539 85.3257 7.84927 86.2519 7.42565 87.6042L6.375 90.9477C6.95114 92.2091 7.56686 93.4497 8.22773 94.6638C9.16539 92.5874 11.3457 91.134 13.8876 91.134H13.882Z" fill="white"/>
<path d="M20.1875 96.754C20.1875 93.5294 17.4654 90.9116 14.1006 90.9116C11.5853 90.9116 9.42225 92.3762 8.5 94.4683C10.0035 97.2958 11.7251 100.005 13.6367 102.569C13.7932 102.58 13.9441 102.591 14.1006 102.591C17.4598 102.591 20.1875 99.9781 20.1875 96.7484V96.754Z" fill="#EAE7E5"/>
<path d="M111.564 37.3325C110.539 35.7254 110.633 34.1666 109.462 32.6616L104.541 29.2001H81.8899L69.8284 45.1478C68.8031 46.5077 69.1096 48.4105 70.5195 49.4048L89.5813 62.8103C89.6982 62.891 89.8209 62.9499 89.9436 63.0144C91.3148 63.7294 93.0482 63.3907 93.9955 62.1435L112.126 38.171L112.055 38.2662C111.614 37.5082 112.032 38.0689 111.564 37.3325Z" fill="#38285F"/>
<path d="M67.9984 2.63861C104.379 2.63858 133.872 30.8301 133.872 65.6063C133.872 100.382 104.379 128.573 67.9989 128.573C31.6177 128.573 2.12501 100.382 2.125 65.6063C2.125 30.8302 31.6177 2.63865 67.9984 2.63861Z" stroke="#0D1544" stroke-width="8"/>
<path d="M90.6125 21.1647L84.543 29.1949H102.027L90.6125 21.1647Z" fill="#467BBC"/>
<path d="M109.245 29.1949H107.199L112.121 32.6564C111.201 31.4685 110.242 30.3129 109.245 29.1949Z" fill="#467BBC"/>
<path d="M107.195 29.1948L92.4084 18.7941L90.6133 21.1645L102.028 29.1948H107.195Z" fill="#467BBC"/>
<path d="M111.119 28.2003L110.205 27.394C112.256 29.5011 112.663 33.3872 110.823 35.8167L108.605 38.644L110.528 39.9985L112.546 37.3271C114.753 34.4085 114.123 30.705 111.113 28.1949L111.119 28.2003Z" fill="#C40C30"/>
<path d="M63.8847 43.9211L83.8103 17.5738L110.888 36.6122L90.962 62.9595C89.934 64.319 87.8181 64.5211 86.2392 63.4105L64.8835 48.3948C63.3041 47.2844 62.8567 45.2804 63.8847 43.9211Z" fill="#E3A21C"/>
<path d="M91.7495 52.2107C90.9245 51.5658 89.7265 51.7272 89.1076 52.5387L86.633 55.8121C85.9695 56.6936 84.6876 56.8815 83.7792 56.2422C82.8654 55.6024 82.6699 54.3663 83.3334 53.4899L87.1956 48.3838C88.1211 47.1583 87.7757 45.4114 86.3876 44.6159C85.1785 43.9225 83.6065 44.3203 82.7815 45.4167L78.9915 50.4317C78.3285 51.3132 77.0466 51.5068 76.1377 50.8617L74.5216 49.7221C73.6073 49.0825 73.407 47.8463 74.0759 46.9701L75.1793 45.5135C75.9151 44.5406 75.837 43.1539 74.9004 42.353C73.8304 41.4339 72.1974 41.6274 71.3782 42.7131L69.0093 45.8414L66.3281 49.3889L85.3899 62.794C85.5073 62.8747 85.6295 62.9341 85.7522 62.9986L92.0284 54.6995C92.6133 53.9256 92.5352 52.8074 91.766 52.2056L91.7495 52.2107Z" fill="#FFCE23"/>
<path d="M117.444 1.78759C114.596 -0.211921 110.605 0.390083 108.532 3.13134C107.506 4.49122 107.139 6.11986 107.378 7.65711L98.5217 19.3693L92.6917 15.2681C89.6652 13.1396 85.4237 13.7792 83.2169 16.6979L81.1992 19.3693L110.533 40.0039L112.55 37.3326C114.758 34.4139 113.849 30.8826 111.23 28.3133C111.23 28.3133 109.847 27.0394 109.34 26.6847L106.007 24.3412L114.718 12.8225C116.313 12.5699 117.806 11.7368 118.837 10.3822C120.911 7.63562 120.286 3.78709 117.444 1.78759Z" fill="#FC543F"/>
<path d="M117.442 1.78766C117.314 1.69628 117.18 1.61566 117.041 1.53503C118.696 3.64204 118.808 6.62517 117.108 8.87193C116.082 10.2318 114.583 11.0595 112.989 11.3122L104.133 23.0244L106.005 24.3412L114.717 12.8226C116.311 12.5699 117.805 11.7368 118.836 10.3823C120.909 7.63566 120.285 3.78717 117.442 1.78766Z" fill="#C40C30"/>
<path d="M24.7358 86.5373L50.2934 101.866L34.6944 125.63L9.13672 110.301L24.7358 86.5373Z" fill="url(#paint0_radial_509_711)"/>
<path d="M24.7358 86.5373L50.2935 101.866L34.6945 125.63L9.13676 110.301L24.7358 86.5373ZM7.24609 110.715L35.1272 127.437L52.1841 101.452L24.303 84.73L7.24609 110.715ZM36.4859 104.944C36.5442 104.856 36.6082 104.832 36.7128 104.895L38.5367 105.989C38.6295 106.044 38.6542 106.105 38.5886 106.205L32.8373 114.967C32.779 115.056 32.7266 115.087 32.6105 115.016L30.8098 113.937C30.6937 113.867 30.6952 113.791 30.7535 113.702L36.4975 104.951L36.4859 104.944ZM38.0127 102.347C38.4793 101.636 39.279 101.528 39.9412 101.925C40.6499 102.35 40.8273 103.091 40.3827 103.768C39.9016 104.501 39.1397 104.601 38.431 104.176C37.7572 103.772 37.5317 103.08 38.0127 102.347ZM28.7322 105.386C29.2161 103.958 30.2134 100.811 30.7757 99.3372L30.7525 99.3235C29.6557 100.476 27.5967 102.306 25.979 103.734L28.7322 105.386ZM24.3218 105.248L21.2172 108.028C21.1357 108.104 21.0863 108.105 20.9701 108.035L19.2624 107.011C19.1463 106.941 19.1449 106.894 19.2556 106.775L29.8004 97.7153C29.9897 97.5502 30.1412 97.3933 30.5215 96.8631C30.5725 96.7855 30.6293 96.7733 30.6873 96.8078L33.1269 98.2713C33.2082 98.3201 33.2285 98.3632 33.1935 98.4658L29.0226 112.663C28.9876 112.766 28.9278 112.808 28.8349 112.752L26.9064 111.595C26.8135 111.54 26.77 111.483 26.7978 111.391L28.0392 107.477L24.3218 105.248Z" fill="#FF7F18"/>
<path d="M46.001 52.9318L19.4883 46.1411C15.4734 45.1128 11.3243 47.4701 10.2209 51.4063L3.21674 76.3928C2.11337 80.3288 4.47361 84.3537 8.48849 85.382L35.0012 92.1725C39.016 93.2008 43.1652 90.8436 44.2686 86.9075L51.2728 61.9206C52.3761 57.9845 50.0158 53.9601 46.001 52.9318Z" fill="#001E36"/>
<path fill-rule="evenodd" clip-rule="evenodd" d="M18.1868 58.5507L13.8955 73.8598C13.8596 73.9877 13.9001 74.0659 14.0172 74.0964L17.0012 74.8607C17.0306 74.8723 17.0626 74.8779 17.0946 74.8759C17.1266 74.8739 17.1577 74.8652 17.1854 74.85C17.2132 74.8348 17.2369 74.8134 17.2545 74.7875C17.2722 74.7621 17.2834 74.7332 17.2872 74.7027L18.6271 69.9227C18.9278 69.9999 19.1522 70.0618 19.3003 70.108C19.4484 70.1543 19.7063 70.2248 20.074 70.3188C21.3604 70.6483 22.5659 70.8205 23.7239 70.7149C24.8295 70.6296 25.8812 70.2223 26.7372 69.5479C27.5882 68.8761 28.1928 67.9011 28.5511 66.6229C28.7377 65.9663 28.8019 65.2828 28.7407 64.6049C28.671 63.9061 28.4434 63.2302 28.0738 62.6234C27.6344 61.9206 27.0364 61.3198 26.3235 60.8658C25.5395 60.3398 24.5127 59.9142 23.243 59.5887C22.7751 59.4694 22.302 59.3521 21.8236 59.2383C21.3451 59.1241 20.8918 59.0169 20.4634 58.9153C20.0349 58.8143 19.6358 58.7208 19.2662 58.6345C18.8961 58.5487 18.6513 58.4898 18.3842 58.4212C18.284 58.3958 18.2181 58.439 18.1868 58.5507ZM19.4133 67.118L20.813 62.1247C20.934 62.1389 21.1504 62.1816 21.4622 62.2527C21.7734 62.3238 22.1296 62.4106 22.5307 62.5132C23.1607 62.6544 23.7545 62.9159 24.2764 63.2815C24.675 63.5654 24.9724 63.9599 25.1282 64.4114C25.2675 64.8725 25.2654 65.362 25.1223 65.8221C24.9387 66.4772 24.6325 66.9464 24.2037 67.2303C23.7606 67.5187 23.2399 67.6797 22.7039 67.6934C22.0747 67.7244 21.4443 67.6619 20.8351 67.5075L20.0081 67.2958C19.8239 67.2491 19.6257 67.1896 19.4133 67.118ZM36.4047 69.9577C36.8946 70.1928 37.3488 70.4904 37.755 70.8428C37.784 70.8672 37.8186 70.885 37.8561 70.8946C37.8935 70.9043 37.9327 70.9053 37.9707 70.8977C37.9997 70.8885 38.0256 70.8723 38.0459 70.8505C38.0661 70.8286 38.08 70.8022 38.0862 70.7733L38.7645 68.3535C38.7818 68.2931 38.7903 68.2301 38.7897 68.1677C38.786 68.1326 38.7737 68.0991 38.754 68.0697C38.7343 68.0402 38.7077 68.0153 38.6763 67.9971C38.2963 67.7132 37.8769 67.4801 37.4301 67.3059C36.8175 67.0495 36.1845 66.8403 35.5372 66.6798C34.4342 66.3974 33.466 66.3375 32.6324 66.5005C31.8802 66.625 31.1815 66.954 30.6205 67.4491C30.1233 67.9016 29.7668 68.4769 29.5905 69.1112C29.435 69.6368 29.4133 70.1903 29.5275 70.7255C29.6716 71.2994 29.9543 71.8336 30.3528 72.285C30.9107 72.9137 31.5552 73.4677 32.2688 73.9309C32.9613 74.3996 33.406 74.7616 33.6029 75.0176C33.7998 75.2735 33.8691 75.5051 33.811 75.7128C33.7757 75.8438 33.7014 75.9626 33.597 76.0545C33.4926 76.1464 33.3626 76.2069 33.2228 76.2297C32.9067 76.3028 32.4563 76.2642 31.8716 76.1144C31.2567 75.9489 30.6642 75.7153 30.1058 75.4182C29.4676 75.0983 28.8856 74.685 28.3807 74.1934C28.366 74.1736 28.3453 74.1584 28.3212 74.1497C28.2972 74.1411 28.2711 74.1401 28.2463 74.1462C28.2202 74.1548 28.1972 74.1705 28.1797 74.1908C28.1621 74.2112 28.1507 74.2355 28.1466 74.2619L27.4214 76.8492C27.4024 76.9076 27.4014 76.9696 27.4182 77.0285C27.435 77.0874 27.469 77.1407 27.5162 77.1819C27.9617 77.5338 28.4512 77.8314 28.9734 78.0685C29.6328 78.3813 30.3246 78.6276 31.0376 78.8028C32.1568 79.0892 33.1414 79.17 33.9915 79.0455C34.7703 78.9511 35.5044 78.6444 36.1062 78.1619C36.6767 77.6816 37.0799 77.0458 37.2617 76.3399C37.421 75.8108 37.4438 75.2527 37.3281 74.7134C37.1727 74.1355 36.8695 73.6033 36.4458 73.1651C35.8247 72.5181 35.1235 71.9463 34.3578 71.4619C34.0208 71.2222 33.6985 70.9637 33.3927 70.6885C33.2189 70.5397 33.0777 70.3594 32.9772 70.1583C32.9147 70.0258 32.8996 69.8775 32.9343 69.7363C32.9749 69.5921 33.058 69.4616 33.1737 69.361C33.3371 69.2402 33.54 69.1782 33.7465 69.1869C34.0749 69.1853 34.4018 69.2305 34.7166 69.3199C35.3022 69.4717 35.8684 69.686 36.4047 69.9577Z" fill="#31A8FF"/>
<path d="M59.1638 1.09328L15.0062 4.89213C13.1734 5.0498 11.8213 6.59787 11.9863 8.34983L15.9237 50.1685C16.0886 51.9208 17.7082 53.2131 19.541 53.0552L63.6986 49.2564C65.5314 49.0987 66.8834 47.5507 66.7182 45.7987L62.7811 3.98C62.6159 2.22803 60.9966 0.935607 59.1638 1.09328Z" fill="#0D1544"/>
<path d="M45.7458 20.4317C49.1759 20.1367 52.1858 22.5387 52.4945 25.8174C52.8032 29.0961 50.2903 31.9733 46.8603 32.2684C43.4302 32.5634 40.4203 30.1614 40.1116 26.8827C39.8029 23.604 42.3157 20.7268 45.7458 20.4317Z" fill="url(#paint1_linear_509_711)"/>
<path d="M34.5114 33.2948C31.0814 33.5899 28.5685 36.467 28.8772 39.7457C29.1859 43.0245 32.1958 45.4265 35.6259 45.1314C39.056 44.8363 41.5688 41.9592 41.2601 38.6804L40.7029 32.7621L34.5114 33.2948Z" fill="url(#paint2_linear_509_711)"/>
<path d="M33.3494 21.4981C29.9441 21.791 27.4436 24.6671 27.7523 27.9458C28.061 31.2246 31.0462 33.6287 34.4639 33.3347L40.6925 32.7988L39.578 20.9622L33.3494 21.4981Z" fill="url(#paint3_linear_509_711)"/>
<path d="M32.2361 9.6852C28.8308 9.97815 26.3303 12.8542 26.639 16.1329C26.9478 19.4117 29.9329 21.8158 33.3505 21.5218L39.5792 20.986L38.4647 9.14935L32.2361 9.6852Z" fill="url(#paint4_linear_509_711)"/>
<path d="M44.6817 8.61457C48.087 8.32161 51.0846 10.7247 51.3933 14.0034C51.702 17.2822 49.2139 20.1571 45.7962 20.4512L39.5676 20.987L38.4531 9.15041L44.6817 8.61457Z" fill="url(#paint5_linear_509_711)"/>
<path d="M125.956 126.683L95.2695 107.683L100.224 100.415L130.911 119.415C132.718 120.534 133.07 123.066 131.705 125.074C130.335 127.081 127.763 127.802 125.962 126.683H125.956Z" fill="#CC0816"/>
<path fill-rule="evenodd" clip-rule="evenodd" d="M104.486 94.1103C104.486 105.926 94.4159 115.504 81.9931 115.504C69.5704 115.504 59.5 105.926 59.5 94.1103C59.5 82.295 69.5704 72.7167 81.9931 72.7167C94.4159 72.7167 104.486 82.295 104.486 94.1103ZM98.1915 94.1103C98.1915 102.619 90.9394 109.517 81.9931 109.517C73.0474 109.517 65.7953 102.619 65.7953 94.1103C65.7953 85.6019 73.0474 78.7038 81.9931 78.7038C90.9394 78.7038 98.1915 85.6019 98.1915 94.1103Z" fill="#EE1822"/>
<path opacity="0.8" d="M81.9947 109.517C90.9409 109.517 98.193 102.619 98.193 94.1103C98.193 85.6019 90.9409 78.7038 81.9947 78.7038C73.049 78.7038 65.7969 85.6019 65.7969 94.1103C65.7969 102.619 73.049 109.517 81.9947 109.517Z" fill="#42ACB6"/>
<path opacity="0.8" d="M81.9947 84.4314C89.9092 84.4314 96.4952 89.8366 97.9083 96.9713C98.09 96.0425 98.193 95.0853 98.193 94.1103C98.193 85.6024 90.9399 78.7038 81.9947 78.7038C73.05 78.7038 65.7969 85.6024 65.7969 94.1103C65.7969 95.0909 65.8999 96.0425 66.0816 96.9713C67.4948 89.8305 74.0807 84.4314 81.9947 84.4314Z" fill="#9CDDE0"/>
<path opacity="0.2" d="M81.216 101.603C76.243 101.026 72.5381 97.1556 72.2283 92.5645C72.0403 93.1353 71.9011 93.7294 71.8225 94.3408C71.1372 99.6881 75.1396 104.545 80.7613 105.196C86.383 105.848 91.4894 102.041 92.1747 96.6946C92.2533 96.0771 92.2655 95.4717 92.2294 94.8776C90.7679 99.261 86.1949 102.174 81.2224 101.603H81.216Z" fill="white"/>
<path d="M126.955 130.069L99.75 113.226L107.167 102.348L134.372 119.19C136.179 120.309 136.531 122.841 135.166 124.849L132.704 128.459C131.334 130.467 128.762 131.188 126.961 130.069H126.955Z" fill="#DEEDEF"/>
<path d="M132.703 128.459L135.165 124.849C136.536 122.841 136.178 120.309 134.371 119.19L133.995 118.953L126.578 129.832L126.954 130.068C128.761 131.188 131.332 130.467 132.697 128.459H132.703Z" fill="#EE1822"/>
<path d="M135.326 124.145L135.836 123.395C135.8 123.516 135.763 123.643 135.721 123.764C136.363 121.999 135.866 120.113 134.374 119.184L133.998 118.948L129.426 125.656L129.584 125.754C131.391 126.873 133.962 126.152 135.326 124.145Z" fill="#EE1822"/>
<path d="M135.715 123.77C135.673 123.891 135.624 124.006 135.57 124.122C135.624 124.006 135.673 123.885 135.715 123.77Z" fill="#EE1822"/>
<path d="M135.164 124.849C135.243 124.727 135.322 124.612 135.389 124.485C135.322 124.606 135.243 124.727 135.164 124.849Z" fill="#C2D6D8"/>
<path d="M129.425 125.662L102.602 109.056L99.7578 113.226L126.957 130.068L126.581 129.832L129.425 125.662Z" fill="#C2D6D8"/>
<path d="M135.525 124.214C135.537 124.185 135.556 124.156 135.568 124.128C135.622 124.012 135.671 123.891 135.713 123.776C135.756 123.654 135.798 123.527 135.829 123.406L135.319 124.156C133.948 126.163 131.377 126.885 129.576 125.766L129.419 125.667L126.574 129.844L126.95 130.08C128.757 131.199 131.329 130.478 132.693 128.471L135.156 124.86C135.234 124.739 135.313 124.618 135.38 124.497C135.429 124.404 135.477 124.318 135.519 124.226L135.525 124.214Z" fill="#CC0816"/>
<defs>
<radialGradient id="paint0_radial_509_711" cx="0" cy="0" r="1" gradientUnits="userSpaceOnUse" gradientTransform="translate(29.6575 96.9114) rotate(30.9543) scale(22.6497 21.4853)">
<stop stop-color="#423325" stop-opacity="0.98"/>
<stop offset="1" stop-color="#1C0A00"/>
</radialGradient>
<linearGradient id="paint1_linear_509_711" x1="46.8603" y1="32.2684" x2="45.8413" y2="20.4235" gradientUnits="userSpaceOnUse">
<stop stop-color="#01B7FE"/>
<stop offset="1" stop-color="#34C2FE"/>
</linearGradient>
<linearGradient id="paint2_linear_509_711" x1="35.627" y1="45.1432" x2="34.608" y2="33.2984" gradientUnits="userSpaceOnUse">
<stop stop-color="#0AB875"/>
<stop offset="1" stop-color="#0AEB93"/>
</linearGradient>
<linearGradient id="paint3_linear_509_711" x1="34.5134" y1="33.3304" x2="33.4944" y2="21.4856" gradientUnits="userSpaceOnUse">
<stop stop-color="#923DFF"/>
<stop offset="1" stop-color="#B070FF"/>
</linearGradient>
<linearGradient id="paint4_linear_509_711" x1="33.3888" y1="21.5304" x2="32.3698" y2="9.68562" gradientUnits="userSpaceOnUse">
<stop stop-color="#E83F0D"/>
<stop offset="1" stop-color="#F26135"/>
</linearGradient>
<linearGradient id="paint5_linear_509_711" x1="45.7478" y1="20.4673" x2="44.7741" y2="8.6189" gradientUnits="userSpaceOnUse">
<stop stop-color="#FF5947"/>
<stop offset="1" stop-color="#FF8A7A"/>
</linearGradient>
</defs>
</svg>
