<svg width="53" height="52" viewBox="0 0 53 52" fill="none" xmlns="http://www.w3.org/2000/svg">
<rect width="52" height="51" transform="translate(0.804688 0.232422)" fill="#2C2C2C"/>
<g clip-path="url(#clip0_509_902)">
<path d="M22.112 33.505H18.5891V22.1602H22.112M20.3487 20.6127C19.2222 20.6127 18.3084 19.6796 18.3084 18.5531C18.3084 17.427 19.2226 16.5128 20.3487 16.5128C21.4747 16.5128 22.3889 17.427 22.3889 18.5531C22.3889 19.6796 21.4748 20.6127 20.3487 20.6127ZM35.2971 33.505H31.7818V27.9824C31.7818 26.6662 31.7553 24.9784 29.9502 24.9784C28.1186 24.9784 27.8379 26.4083 27.8379 27.8876V33.505H24.3188V22.1602H27.6976V23.7077H27.7469C28.2172 22.8164 29.3661 21.8757 31.0801 21.8757C34.6455 21.8757 35.3009 24.2236 35.3009 27.2731V33.505" fill="#00BFFF"/>
</g>
<defs>
<clipPath id="clip0_509_902">
<rect width="17" height="19.42" fill="white" transform="translate(18.3047 16.5125)"/>
</clipPath>
</defs>
</svg>
