<svg width="290" height="62" viewBox="0 0 290 62" fill="none" xmlns="http://www.w3.org/2000/svg">
<path d="M52.3395 31.7802C52.3395 34.2711 52.0512 36.6798 51.4742 39.0067C50.8973 41.3061 50.0593 43.4686 48.9604 45.4941C47.8888 47.5197 46.5698 49.3811 45.0039 51.078C43.4651 52.7481 41.7207 54.185 39.7699 55.3895C37.8466 56.594 35.7449 57.5382 33.4644 58.2227C31.1841 58.8796 28.7662 59.2079 26.211 59.2079C23.7383 59.2079 21.3755 58.893 19.1225 58.2637C16.897 57.634 14.8089 56.7582 12.8582 55.6357C10.9075 54.486 9.13539 53.1174 7.54183 51.5298C5.97579 49.9149 4.62949 48.1356 3.50302 46.1921C2.40403 44.2213 1.5386 42.1134 0.906655 39.8688C0.30223 37.6243 0 35.2839 0 32.8477C0 30.4662 0.288489 28.1395 0.865433 25.8676C1.44241 23.5682 2.26665 21.4058 3.3382 19.3801C4.43719 17.3545 5.75597 15.4932 7.29456 13.796C8.83316 12.0989 10.5504 10.6344 12.4461 9.40264C14.3693 8.17086 16.4437 7.2128 18.6692 6.52847C20.8946 5.84415 23.2437 5.502 25.7165 5.502C29.7003 5.502 33.327 6.11788 36.5964 7.34967C39.8935 8.58145 42.696 10.347 45.0039 12.6464C47.3392 14.9183 49.1386 17.683 50.4027 20.9404C51.694 24.1704 52.3395 27.7837 52.3395 31.7802ZM34.0413 32.8477C34.0413 31.6706 33.8627 30.5347 33.5056 29.4398C33.176 28.3175 32.6814 27.332 32.0221 26.4835C31.3624 25.6075 30.5383 24.9095 29.5491 24.3894C28.5876 23.842 27.4749 23.5682 26.211 23.5682C24.9197 23.5682 23.7658 23.8009 22.7492 24.2662C21.7326 24.7316 20.8534 25.3749 20.1116 26.196C19.3973 26.9899 18.8478 27.9342 18.4631 29.0291C18.0784 30.0967 17.8861 31.2327 17.8861 32.4371C17.8861 33.5866 18.051 34.7363 18.3807 35.886C18.7104 37.0357 19.2049 38.076 19.8643 39.0067C20.5237 39.9374 21.3342 40.6902 22.2958 41.2651C23.285 41.8399 24.4252 42.1272 25.7165 42.1272C27.0078 42.1272 28.1617 41.8809 29.1783 41.3882C30.2223 40.8682 31.1014 40.1837 31.8158 39.335C32.5302 38.4591 33.0798 37.4601 33.4644 36.3377C33.8489 35.2156 34.0413 34.0521 34.0413 32.8477ZM118.986 0.90331L115.194 61.1789L96.4015 62L96.5666 30.2199L88.0767 55.8412H80.8235L74.312 32.9298L74.2296 59.5365L55.1893 60.1113L56.0134 3.36689L77.1968 2.5457L85.604 29.7272L96.8137 0.90331H118.986ZM144.338 2.95629L139.804 58.8796L122.413 59.7827V4.10597L144.338 2.95629ZM198.085 57.2371L177.643 59.8648L175.171 50.5856H165.774L163.713 59.8648L142.695 57.812L159.098 3.12053L182.012 1.97086L198.085 57.2371ZM173.687 38.0212L170.555 23.7325L167.505 38.0212H173.687ZM247.751 52.3922C246.46 54.0071 244.866 55.4168 242.971 56.6213C241.075 57.8258 239.042 58.8248 236.871 59.6186C234.701 60.4124 232.475 61.001 230.195 61.3841C227.915 61.7948 225.744 62 223.683 62C219.7 62 216.032 61.2883 212.68 59.8648C209.328 58.4416 206.429 56.4844 203.984 53.9933C201.566 51.4749 199.67 48.5187 198.297 45.1245C196.923 41.7302 196.236 38.076 196.236 34.1615C196.236 31.1779 196.58 28.2627 197.266 25.4159C197.953 22.5417 198.929 19.8455 200.192 17.3272C201.484 14.7814 203.05 12.4547 204.891 10.347C206.732 8.21193 208.82 6.37792 211.155 4.84502C213.49 3.31213 216.046 2.12141 218.82 1.27285C221.595 0.424282 224.562 0 227.722 0C228.903 0 230.168 0.054746 231.514 0.164238C232.86 0.246358 234.193 0.410596 235.511 0.656953C236.858 0.875937 238.163 1.19073 239.426 1.60133C240.691 2.01192 241.844 2.51832 242.888 3.12053L241.734 18.8053C240.196 18.2305 238.602 17.8472 236.954 17.6556C235.333 17.4366 233.739 17.3272 232.173 17.3272C229.975 17.3272 227.915 17.6693 225.991 18.3537C224.096 19.0106 222.433 19.9687 221.005 21.2278C219.603 22.487 218.491 24.0199 217.666 25.8265C216.842 27.6331 216.43 29.6724 216.43 31.9444C216.43 33.3678 216.623 34.7501 217.007 36.0915C217.392 37.4053 217.969 38.5822 218.738 39.6226C219.535 40.6354 220.51 41.4564 221.664 42.0861C222.845 42.7158 224.205 43.0306 225.744 43.0306C226.788 43.0306 227.86 42.8937 228.959 42.6199C230.085 42.3461 231.047 41.8809 231.843 41.224L232.008 38.0212L222.118 37.8571L222.612 25.5391C226.706 25.4022 230.8 25.2927 234.893 25.2106C238.987 25.1011 243.108 24.9643 247.257 24.8L247.751 52.3922ZM290 1.56027C289.835 4.13332 289.684 6.67903 289.547 9.19736C289.41 11.7157 289.231 14.2614 289.011 16.8345L271.537 17.7378L271.125 22.9113H283.406L282.5 35.6398L270.136 36.0505L269.724 42.0451H279.944H287.198C287.033 45.0562 286.854 48.0535 286.662 51.037C286.497 53.9933 286.346 56.9633 286.209 59.9472L250.683 60.7682L252.002 1.56027H290Z" fill="#D9D9D9"/>
</svg>
