<svg width="1400" height="62" viewBox="0 0 1400 62" fill="none" xmlns="http://www.w3.org/2000/svg">
<path d="M607.34 31.7802C607.34 34.2711 607.051 36.6798 606.474 39.0067C605.897 41.3061 605.059 43.4686 603.96 45.4941C602.889 47.5197 601.57 49.3811 600.004 51.078C598.465 52.7481 596.721 54.185 594.77 55.3895C592.847 56.594 590.745 57.5382 588.464 58.2227C586.184 58.8796 583.766 59.2079 581.211 59.2079C578.738 59.2079 576.375 58.893 574.123 58.2637C571.897 57.634 569.809 56.7582 567.858 55.6357C565.908 54.486 564.135 53.1174 562.542 51.5298C560.976 49.9149 559.629 48.1356 558.503 46.1921C557.404 44.2213 556.539 42.1134 555.907 39.8688C555.302 37.6243 555 35.2839 555 32.8477C555 30.4662 555.288 28.1395 555.865 25.8676C556.442 23.5682 557.267 21.4058 558.338 19.3801C559.437 17.3545 560.756 15.4932 562.295 13.796C563.833 12.0989 565.55 10.6344 567.446 9.40264C569.369 8.17086 571.444 7.2128 573.669 6.52847C575.895 5.84415 578.244 5.502 580.716 5.502C584.7 5.502 588.327 6.11788 591.596 7.34967C594.894 8.58145 597.696 10.347 600.004 12.6464C602.339 14.9183 604.139 17.683 605.403 20.9404C606.694 24.1704 607.34 27.7837 607.34 31.7802ZM589.041 32.8477C589.041 31.6706 588.863 30.5347 588.506 29.4398C588.176 28.3175 587.681 27.332 587.022 26.4835C586.362 25.6075 585.538 24.9095 584.549 24.3894C583.588 23.842 582.475 23.5682 581.211 23.5682C579.92 23.5682 578.766 23.8009 577.749 24.2662C576.733 24.7316 575.853 25.3749 575.112 26.196C574.397 26.9899 573.848 27.9342 573.463 29.0291C573.078 30.0967 572.886 31.2327 572.886 32.4371C572.886 33.5866 573.051 34.7363 573.381 35.886C573.71 37.0357 574.205 38.076 574.864 39.0067C575.524 39.9374 576.334 40.6902 577.296 41.2651C578.285 41.8399 579.425 42.1272 580.716 42.1272C582.008 42.1272 583.162 41.8809 584.178 41.3882C585.222 40.8682 586.101 40.1837 586.816 39.335C587.53 38.4591 588.08 37.4601 588.464 36.3377C588.849 35.2156 589.041 34.0521 589.041 32.8477ZM673.986 0.90331L670.194 61.1789L651.402 62L651.567 30.2199L643.077 55.8412H635.823L629.312 32.9298L629.23 59.5365L610.189 60.1113L611.013 3.36689L632.197 2.5457L640.604 29.7272L651.814 0.90331H673.986ZM699.338 2.95629L694.804 58.8796L677.413 59.7827V4.10597L699.338 2.95629ZM753.085 57.2371L732.643 59.8648L730.171 50.5856H720.774L718.713 59.8648L697.695 57.812L714.098 3.12053L737.012 1.97086L753.085 57.2371ZM728.687 38.0212L725.555 23.7325L722.505 38.0212H728.687ZM802.751 52.3922C801.46 54.0071 799.866 55.4168 797.971 56.6213C796.075 57.8258 794.042 58.8248 791.871 59.6186C789.701 60.4124 787.475 61.001 785.195 61.3841C782.915 61.7948 780.744 62 778.683 62C774.7 62 771.032 61.2883 767.68 59.8648C764.328 58.4416 761.429 56.4844 758.984 53.9933C756.566 51.4749 754.67 48.5187 753.297 45.1245C751.923 41.7302 751.236 38.076 751.236 34.1615C751.236 31.1779 751.58 28.2627 752.266 25.4159C752.953 22.5417 753.929 19.8455 755.192 17.3272C756.484 14.7814 758.05 12.4547 759.891 10.347C761.732 8.21193 763.82 6.37792 766.155 4.84502C768.49 3.31213 771.046 2.12141 773.82 1.27285C776.595 0.424282 779.562 0 782.722 0C783.903 0 785.168 0.054746 786.514 0.164238C787.86 0.246358 789.193 0.410596 790.511 0.656953C791.858 0.875937 793.163 1.19073 794.426 1.60133C795.691 2.01192 796.844 2.51832 797.888 3.12053L796.734 18.8053C795.196 18.2305 793.602 17.8472 791.954 17.6556C790.333 17.4366 788.739 17.3272 787.173 17.3272C784.975 17.3272 782.915 17.6693 780.991 18.3537C779.096 19.0106 777.433 19.9687 776.005 21.2278C774.603 22.487 773.491 24.0199 772.666 25.8265C771.842 27.6331 771.43 29.6724 771.43 31.9444C771.43 33.3678 771.623 34.7501 772.007 36.0915C772.392 37.4053 772.969 38.5822 773.738 39.6226C774.535 40.6354 775.51 41.4564 776.664 42.0861C777.845 42.7158 779.205 43.0306 780.744 43.0306C781.788 43.0306 782.86 42.8937 783.959 42.6199C785.085 42.3461 786.047 41.8809 786.843 41.224L787.008 38.0212L777.118 37.8571L777.612 25.5391C781.706 25.4022 785.8 25.2927 789.893 25.2106C793.987 25.1011 798.108 24.9643 802.257 24.8L802.751 52.3922ZM845 1.56027C844.835 4.13332 844.684 6.67903 844.547 9.19736C844.41 11.7157 844.231 14.2614 844.011 16.8345L826.537 17.7378L826.125 22.9113H838.406L837.5 35.6398L825.136 36.0505L824.724 42.0451H834.944H842.198C842.033 45.0562 841.854 48.0535 841.662 51.037C841.497 53.9933 841.346 56.9633 841.209 59.9472L805.683 60.7682L807.002 1.56027H845Z" fill="#D9D9D9"/>
</svg>
