<svg width="24" height="24" viewBox="0 0 24 24" fill="none" xmlns="http://www.w3.org/2000/svg">
<g clip-path="url(#clip0_485_873)">
<path d="M6 10.75C6 10.4545 6.0582 10.1619 6.17127 9.88896C6.28434 9.61598 6.45008 9.36794 6.65901 9.15901C6.86794 8.95008 7.11598 8.78434 7.38896 8.67127C7.66194 8.5582 7.95453 8.5 8.25 8.5C8.54547 8.5 8.83806 8.5582 9.11104 8.67127C9.38402 8.78434 9.63206 8.95008 9.84099 9.15901C10.0499 9.36794 10.2157 9.61598 10.3287 9.88896C10.4418 10.1619 10.5 10.4545 10.5 10.75C10.5 11.3467 10.2629 11.919 9.84099 12.341C9.41903 12.7629 8.84674 13 8.25 13C7.65326 13 7.08097 12.7629 6.65901 12.341C6.23705 11.919 6 11.3467 6 10.75ZM8.25 10C8.05109 10 7.86032 10.079 7.71967 10.2197C7.57902 10.3603 7.5 10.5511 7.5 10.75C7.5 10.9489 7.57902 11.1397 7.71967 11.2803C7.86032 11.421 8.05109 11.5 8.25 11.5C8.44891 11.5 8.63968 11.421 8.78033 11.2803C8.92098 11.1397 9 10.9489 9 10.75C9 10.5511 8.92098 10.3603 8.78033 10.2197C8.63968 10.079 8.44891 10 8.25 10ZM8.25 14C7.65326 14 7.08097 14.2371 6.65901 14.659C6.23705 15.081 6 15.6533 6 16.25C6 16.8467 6.23705 17.419 6.65901 17.841C7.08097 18.2629 7.65326 18.5 8.25 18.5C8.84674 18.5 9.41903 18.2629 9.84099 17.841C10.2629 17.419 10.5 16.8467 10.5 16.25C10.5 15.6533 10.2629 15.081 9.84099 14.659C9.41903 14.2371 8.84674 14 8.25 14ZM7.5 16.25C7.5 16.0511 7.57902 15.8603 7.71967 15.7197C7.86032 15.579 8.05109 15.5 8.25 15.5C8.44891 15.5 8.63968 15.579 8.78033 15.7197C8.92098 15.8603 9 16.0511 9 16.25C9 16.4489 8.92098 16.6397 8.78033 16.7803C8.63968 16.921 8.44891 17 8.25 17C8.05109 17 7.86032 16.921 7.71967 16.7803C7.57902 16.6397 7.5 16.4489 7.5 16.25ZM12 10.75C12 10.5511 12.079 10.3603 12.2197 10.2197C12.3603 10.079 12.5511 10 12.75 10H17.25C17.4489 10 17.6397 10.079 17.7803 10.2197C17.921 10.3603 18 10.5511 18 10.75C18 10.9489 17.921 11.1397 17.7803 11.2803C17.6397 11.421 17.4489 11.5 17.25 11.5H12.75C12.5511 11.5 12.3603 11.421 12.2197 11.2803C12.079 11.1397 12 10.9489 12 10.75ZM12.75 15.5C12.5511 15.5 12.3603 15.579 12.2197 15.7197C12.079 15.8603 12 16.0511 12 16.25C12 16.4489 12.079 16.6397 12.2197 16.7803C12.3603 16.921 12.5511 17 12.75 17H17.25C17.4489 17 17.6397 16.921 17.7803 16.7803C17.921 16.6397 18 16.4489 18 16.25C18 16.0511 17.921 15.8603 17.7803 15.7197C17.6397 15.579 17.4489 15.5 17.25 15.5H12.75ZM6 6.75C6 6.55109 6.07902 6.36032 6.21967 6.21967C6.36032 6.07902 6.55109 6 6.75 6H17.25C17.4489 6 17.6397 6.07902 17.7803 6.21967C17.921 6.36032 18 6.55109 18 6.75C18 6.94891 17.921 7.13968 17.7803 7.28033C17.6397 7.42098 17.4489 7.5 17.25 7.5H6.75C6.55109 7.5 6.36032 7.42098 6.21967 7.28033C6.07902 7.13968 6 6.94891 6 6.75ZM6.25 3C5.38805 3 4.5614 3.34241 3.9519 3.9519C3.34241 4.5614 3 5.38805 3 6.25V17.75C3 18.612 3.34241 19.4386 3.9519 20.0481C4.5614 20.6576 5.38805 21 6.25 21H17.75C18.612 21 19.4386 20.6576 20.0481 20.0481C20.6576 19.4386 21 18.612 21 17.75V6.25C21 5.38805 20.6576 4.5614 20.0481 3.9519C19.4386 3.34241 18.612 3 17.75 3H6.25ZM4.5 6.25C4.5 5.284 5.284 4.5 6.25 4.5H17.75C18.716 4.5 19.5 5.284 19.5 6.25V17.75C19.5 18.2141 19.3156 18.6592 18.9874 18.9874C18.6592 19.3156 18.2141 19.5 17.75 19.5H6.25C5.78587 19.5 5.34075 19.3156 5.01256 18.9874C4.68437 18.6592 4.5 18.2141 4.5 17.75V6.25Z" fill="#E1E1E1"/>
</g>
<defs>
<clipPath id="clip0_485_873">
<rect width="24" height="24" fill="white"/>
</clipPath>
</defs>
</svg>
