<svg width="221" height="151" viewBox="0 0 221 151" fill="none" xmlns="http://www.w3.org/2000/svg">
<g clip-path="url(#clip0_445_591)">
<mask id="mask0_445_591" style="mask-type:luminance" maskUnits="userSpaceOnUse" x="0" y="47" width="221" height="57">
<path d="M220.5 47.5229H0.5V103.477H220.5V47.5229Z" fill="white"/>
</mask>
<g mask="url(#mask0_445_591)">
<path d="M38.1687 58.7903C38.1687 58.7903 40.088 58.4868 41.821 59.3041L22.5904 48.2007L19.0312 50.1706L38.1714 61.6999C38.1714 59.9377 38.1687 58.7903 38.1687 58.7903Z" fill="#4F4F4F"/>
<path d="M18.9805 47.7057C18.9805 47.7057 27.1823 46.412 24.9675 56.3893C24.1475 61.1571 20.6577 65.3391 19.0018 66.231C19.0018 60.5981 18.9805 47.7057 18.9805 47.7057Z" fill="#4F4F4F"/>
<path d="M38.168 58.7907C38.168 58.7907 46.3698 57.497 44.1549 67.4743C43.335 72.2447 39.8451 76.4241 38.1892 77.3159C38.1892 71.683 38.168 58.7907 38.168 58.7907Z" fill="#4F4F4F"/>
<path opacity="0.4" d="M38.168 58.7907C38.168 58.7907 46.3698 57.497 44.1549 67.4743C43.335 72.2447 39.8451 76.4241 38.1892 77.3159C38.1892 71.683 38.168 58.7907 38.168 58.7907Z" fill="#333333"/>
<path d="M16.9392 67.4739L16.918 48.9487L36.1139 60.0308L36.1353 78.556L16.9392 67.4739Z" fill="url(#paint0_linear_445_591)"/>
<path d="M16.9378 67.2554L1.02148 76.4421L20.2175 87.5269L36.1339 78.3375L16.9378 67.2554Z" fill="black"/>
<path d="M17.0353 69.5347L5.17578 76.3815L20.1205 85.0092L31.98 78.1624L17.0353 69.5347Z" fill="white"/>
<path d="M1.04278 92.5244L1.02148 76.4429L20.2175 87.5277L20.2389 103.606L1.04278 92.5244Z" fill="#4F4F4F"/>
<path d="M36.0942 94.3582L20.1777 103.548L20.2177 87.5274L36.1341 78.3379L36.0942 94.3582Z" fill="#4F4F4F"/>
<path opacity="0.4" d="M36.0942 94.3582L20.1777 103.548L20.2177 87.5274L36.1341 78.3379L36.0942 94.3582Z" fill="#333333"/>
<path d="M38.1922 77.3157L38.171 58.7905L36.1133 60.031L36.1345 78.5562L38.1922 77.3157Z" fill="#4F4F4F"/>
<path opacity="0.3" d="M38.1922 77.3157L38.171 58.7905L36.1133 60.031L36.1345 78.5562L38.1922 77.3157Z" fill="#4F4F4F"/>
<path d="M18.9757 47.7056L16.918 48.9487L36.1139 60.0308L38.1717 58.7903L18.9757 47.7056Z" fill="#4F4F4F"/>
<path d="M80.9057 75.5303C80.9057 77.3465 80.5928 79.0077 79.9643 80.5111C79.3355 82.0143 78.467 83.302 77.3524 84.3711C76.2379 85.4431 74.9137 86.2692 73.377 86.8523C71.8402 87.4355 70.1759 87.7269 68.3811 87.7269C66.5862 87.7269 64.9249 87.4355 63.4003 86.8523C61.8758 86.2692 60.5547 85.4401 59.44 84.3711C58.3255 83.299 57.4538 82.0143 56.8283 80.5111C56.1995 79.0077 55.8867 77.3465 55.8867 75.5303C55.8867 73.693 56.1995 72.0316 56.8283 70.5496C57.4569 69.0675 58.3255 67.8071 59.44 66.7686C60.5547 65.7299 61.8728 64.9311 63.4003 64.3662C64.9249 63.8044 66.5862 63.522 68.3811 63.522C70.1759 63.522 71.8432 63.8044 73.377 64.3662C74.9137 64.9281 76.2379 65.7299 77.3524 66.7686C78.467 67.8071 79.3355 69.0675 79.9643 70.5496C80.5898 72.0316 80.9057 73.693 80.9057 75.5303ZM74.9683 75.5303C74.9683 74.5342 74.8074 73.6048 74.4824 72.7393C74.1574 71.8737 73.708 71.1327 73.137 70.5162C72.563 69.8997 71.8705 69.4138 71.0597 69.0554C70.2488 68.6971 69.3559 68.5208 68.3841 68.5208C67.4092 68.5208 66.5224 68.7 65.7236 69.0554C64.9219 69.4138 64.2294 69.8997 63.6464 70.5162C63.0632 71.1327 62.6138 71.8737 62.3009 72.7393C61.9881 73.6048 61.8302 74.5342 61.8302 75.5303C61.8302 76.569 61.9911 77.5257 62.3162 78.4034C62.6411 79.281 63.0905 80.0311 63.6615 80.6598C64.2355 81.2884 64.9219 81.7804 65.7206 82.1358C66.5193 82.4942 67.4093 82.6704 68.3811 82.6704C69.3559 82.6704 70.2397 82.4912 71.0414 82.1358C71.8402 81.7804 72.5327 81.2884 73.1188 80.6598C73.7019 80.0311 74.1574 79.281 74.4824 78.4034C74.8043 77.5257 74.9683 76.569 74.9683 75.5303Z" fill="white"/>
<path d="M102.255 78.9706C102.255 80.0943 102.082 81.1785 101.736 82.2142C101.39 83.2529 100.886 84.1669 100.227 84.9567C99.5675 85.7462 98.7598 86.3779 97.8092 86.8548C96.8555 87.3315 95.7744 87.5684 94.5656 87.5684C93.5694 87.5684 92.628 87.368 91.7411 86.9672C90.8544 86.5662 90.1619 86.0195 89.6638 85.3271H89.6001V94.8998H84.2793V70.9559H89.342V72.9361H89.4391C89.9372 72.2862 90.6236 71.7182 91.4982 71.2323C92.3729 70.7464 93.4085 70.5034 94.5959 70.5034C95.7652 70.5034 96.8252 70.7312 97.7757 71.1838C98.7263 71.6393 99.5341 72.2558 100.193 73.0333C100.852 73.8108 101.362 74.7157 101.718 75.7423C102.076 76.7688 102.255 77.8439 102.255 78.9706ZM97.0954 78.9706C97.0954 78.4513 97.0134 77.9441 96.8525 77.446C96.6915 76.948 96.4515 76.5107 96.1387 76.131C95.826 75.7514 95.4311 75.4446 94.9544 75.2047C94.4775 74.9679 93.9278 74.8494 93.2992 74.8494C92.6917 74.8494 92.1512 74.9679 91.6774 75.2047C91.2005 75.4446 90.7966 75.7575 90.4595 76.1462C90.1224 76.535 89.8643 76.9784 89.682 77.4764C89.4969 77.9745 89.4057 78.4817 89.4057 79.001C89.4057 79.5204 89.4969 80.0275 89.682 80.5256C89.8643 81.0236 90.1254 81.467 90.4595 81.8558C90.7936 82.2445 91.2005 82.5604 91.6774 82.7972C92.1542 83.0341 92.6947 83.1527 93.2992 83.1527C93.9278 83.1527 94.4775 83.0341 94.9544 82.7972C95.4311 82.5604 95.826 82.2445 96.1387 81.8558C96.4515 81.467 96.6915 81.0176 96.8525 80.5104C97.0164 80.0032 97.0954 79.49 97.0954 78.9706Z" fill="white"/>
<path d="M121.628 79.2293C121.628 79.4449 121.628 79.6637 121.628 79.8792C121.628 80.0949 121.616 80.3014 121.595 80.4957H109.881C109.924 80.9514 110.06 81.3613 110.288 81.7287C110.516 82.0962 110.808 82.4152 111.163 82.6854C111.521 82.9558 111.919 83.1683 112.362 83.3172C112.806 83.469 113.264 83.5449 113.741 83.5449C114.586 83.5449 115.299 83.387 115.882 83.0742C116.466 82.7613 116.942 82.3544 117.31 81.8563L121.009 84.1918C120.253 85.2943 119.25 86.1446 118.008 86.7399C116.763 87.3352 115.32 87.6327 113.677 87.6327C112.466 87.6327 111.321 87.4444 110.237 87.0648C109.155 86.6852 108.208 86.1355 107.397 85.4096C106.586 84.6839 105.948 83.7939 105.484 82.734C105.019 81.6742 104.785 80.4624 104.785 79.0988C104.785 77.7807 105.013 76.584 105.465 75.512C105.921 74.44 106.538 73.5319 107.315 72.7878C108.092 72.0407 109.013 71.4636 110.073 71.0506C111.132 70.6406 112.28 70.4341 113.514 70.4341C114.704 70.4341 115.794 70.6345 116.79 71.0355C117.787 71.4363 118.64 72.0134 119.354 72.7726C120.067 73.5288 120.623 74.449 121.024 75.5302C121.428 76.6114 121.628 77.8444 121.628 79.2293ZM116.727 77.1854C116.727 76.3411 116.462 75.6183 115.931 75.0108C115.399 74.4065 114.607 74.1029 113.547 74.1029C113.028 74.1029 112.551 74.1848 112.12 74.3458C111.685 74.5068 111.309 74.7315 110.984 75.0108C110.659 75.2933 110.401 75.6214 110.206 76.001C110.012 76.3806 109.903 76.7754 109.881 77.1854H116.727Z" fill="white"/>
<path d="M135.547 87.114V78.2884C135.547 77.8329 135.51 77.4016 135.435 76.9916C135.359 76.5816 135.234 76.2171 135.061 75.9044C134.888 75.5916 134.645 75.3425 134.332 75.1573C134.02 74.9751 133.624 74.8809 133.147 74.8809C132.67 74.8809 132.255 74.972 131.9 75.1573C131.541 75.3425 131.244 75.5947 131.007 75.9196C130.769 76.2445 130.59 76.6181 130.472 77.0402C130.353 77.4624 130.292 77.8997 130.292 78.3552V87.1171H124.936V70.9571H130.095V73.1954H130.159C130.353 72.8491 130.609 72.5089 130.922 72.1719C131.235 71.8379 131.602 71.5493 132.024 71.3124C132.447 71.0755 132.904 70.8812 133.403 70.7293C133.901 70.5775 134.429 70.5015 134.991 70.5015C136.072 70.5015 136.993 70.6959 137.748 71.0847C138.505 71.4734 139.115 71.9775 139.583 72.594C140.047 73.2105 140.382 73.9182 140.588 74.72C140.795 75.5217 140.896 76.3204 140.896 77.1222V87.1171H135.547V87.114Z" fill="white"/>
<path d="M153.328 87.1131V64.1411H158.91V82.2781H167.802V87.1131H153.328Z" fill="white"/>
<path d="M186.654 78.971C186.654 80.2921 186.414 81.4856 185.941 82.5577C185.464 83.6298 184.814 84.5379 183.994 85.285C183.171 86.0321 182.22 86.609 181.139 87.0221C180.058 87.4321 178.901 87.6386 177.667 87.6386C176.455 87.6386 175.305 87.4321 174.211 87.0221C173.119 86.6121 172.167 86.0321 171.357 85.285C170.546 84.5379 169.903 83.6298 169.426 82.5577C168.949 81.4856 168.711 80.2921 168.711 78.971C168.711 77.6529 168.949 76.4623 169.426 75.4025C169.903 74.3426 170.546 73.4436 171.357 72.7086C172.167 71.9737 173.119 71.4119 174.211 71.0201C175.305 70.6313 176.455 70.437 177.667 70.437C178.901 70.437 180.058 70.6313 181.139 71.0201C182.22 71.4088 183.171 71.9707 183.994 72.7086C184.817 73.4436 185.464 74.3426 185.941 75.4025C186.418 76.4594 186.654 77.6498 186.654 78.971ZM181.528 78.971C181.528 78.4516 181.439 77.9445 181.27 77.4464C181.097 76.9484 180.848 76.511 180.522 76.1313C180.198 75.7517 179.796 75.445 179.323 75.205C178.846 74.9681 178.297 74.8497 177.667 74.8497C177.039 74.8497 176.49 74.9681 176.013 75.205C175.536 75.445 175.141 75.7517 174.828 76.1313C174.515 76.511 174.276 76.9484 174.114 77.4464C173.953 77.9445 173.871 78.4516 173.871 78.971C173.871 79.4903 173.953 79.9975 174.114 80.4956C174.276 80.9936 174.521 81.4431 174.843 81.8409C175.169 82.2419 175.569 82.5607 176.043 82.7976C176.519 83.0345 177.07 83.1529 177.698 83.1529C178.326 83.1529 178.877 83.0345 179.354 82.7976C179.83 82.5607 180.227 82.2419 180.553 81.8409C180.878 81.4401 181.121 80.9936 181.281 80.4956C181.446 79.9975 181.528 79.4903 181.528 78.971Z" fill="white"/>
<path d="M207.162 78.971C207.162 80.2921 206.922 81.4856 206.449 82.5577C205.972 83.6298 205.322 84.5379 204.502 85.285C203.679 86.0321 202.728 86.609 201.647 87.0221C200.566 87.4321 199.409 87.6386 198.175 87.6386C196.963 87.6386 195.812 87.4321 194.719 87.0221C193.626 86.6121 192.675 86.0321 191.865 85.285C191.054 84.5379 190.41 83.6298 189.933 82.5577C189.457 81.4856 189.219 80.2921 189.219 78.971C189.219 77.6529 189.457 76.4623 189.933 75.4025C190.41 74.3426 191.054 73.4436 191.865 72.7086C192.675 71.9737 193.626 71.4119 194.719 71.0201C195.812 70.6313 196.963 70.437 198.175 70.437C199.409 70.437 200.566 70.6313 201.647 71.0201C202.728 71.4088 203.679 71.9707 204.502 72.7086C205.325 73.4436 205.972 74.3426 206.449 75.4025C206.926 76.4594 207.162 77.6498 207.162 78.971ZM202.036 78.971C202.036 78.4516 201.947 77.9445 201.778 77.4464C201.604 76.9484 201.356 76.511 201.03 76.1313C200.706 75.7517 200.304 75.445 199.831 75.205C199.354 74.9681 198.805 74.8497 198.175 74.8497C197.547 74.8497 196.998 74.9681 196.521 75.205C196.044 75.445 195.648 75.7517 195.336 76.1313C195.023 76.511 194.784 76.9484 194.622 77.4464C194.461 77.9445 194.379 78.4516 194.379 78.971C194.379 79.4903 194.461 79.9975 194.622 80.4956C194.784 80.9936 195.029 81.4431 195.351 81.8409C195.676 82.2419 196.077 82.5607 196.551 82.7976C197.027 83.0345 197.577 83.1529 198.206 83.1529C198.834 83.1529 199.385 83.0345 199.861 82.7976C200.338 82.5607 200.735 82.2419 201.061 81.8409C201.386 81.4401 201.629 80.9936 201.789 80.4956C201.956 79.9975 202.036 79.4903 202.036 78.971Z" fill="white"/>
<path d="M216.308 74.9141V81.1036C216.308 81.8628 216.455 82.4338 216.746 82.8134C217.037 83.193 217.564 83.3844 218.319 83.3844C218.577 83.3844 218.854 83.3631 219.146 83.3205C219.437 83.2781 219.68 83.2113 219.874 83.1262L219.938 87.0197C219.57 87.1503 219.106 87.2626 218.544 87.3599C217.982 87.4571 217.42 87.5056 216.855 87.5056C215.774 87.5056 214.866 87.3689 214.129 87.0987C213.394 86.8283 212.804 86.4365 212.361 85.9263C211.917 85.4161 211.598 84.8088 211.404 84.1042C211.21 83.3995 211.112 82.613 211.112 81.7444V74.9111H208.516V70.9569H211.079V66.7051H216.303V70.9569H220.099V74.9172H216.308V74.9141Z" fill="white"/>
</g>
</g>
<defs>
<linearGradient id="paint0_linear_445_591" x1="20.0832" y1="76.1227" x2="30.5178" y2="56.0876" gradientUnits="userSpaceOnUse">
<stop stop-color="white"/>
<stop offset="1"/>
</linearGradient>
<clipPath id="clip0_445_591">
<rect width="220" height="150" fill="white" transform="translate(0.5 0.5)"/>
</clipPath>
</defs>
</svg>
