<svg width="173" height="45" viewBox="0 0 173 45" fill="none" xmlns="http://www.w3.org/2000/svg">
<g clip-path="url(#clip0_445_591)">
<mask id="mask0_445_591" style="mask-type:luminance" maskUnits="userSpaceOnUse" x="0" y="0" width="173" height="45">
<path d="M173 0.5H0V44.5H173V0.5Z" fill="white"/>
</mask>
<g mask="url(#mask0_445_591)">
<path d="M29.6213 9.36001C29.6213 9.36001 31.1306 9.12138 32.4933 9.76403L17.3711 1.03271L14.5723 2.58179L29.6234 11.648C29.6234 10.2622 29.6213 9.36001 29.6213 9.36001Z" fill="#4F4F4F"/>
<path d="M14.5312 0.643242C14.5312 0.643242 20.9809 -0.37412 19.2393 7.47171C18.5944 11.2209 15.8501 14.5095 14.548 15.2108C14.548 10.7813 14.5312 0.643242 14.5312 0.643242Z" fill="#4F4F4F"/>
<path d="M29.6211 9.36004C29.6211 9.36004 36.0707 8.34268 34.329 16.1885C33.6843 19.9398 30.9399 23.2263 29.6378 23.9276C29.6378 19.4981 29.6211 9.36004 29.6211 9.36004Z" fill="#4F4F4F"/>
<path opacity="0.4" d="M29.6211 9.36004C29.6211 9.36004 36.0707 8.34268 34.329 16.1885C33.6843 19.9398 30.9399 23.2263 29.6378 23.9276C29.6378 19.4981 29.6211 9.36004 29.6211 9.36004Z" fill="#333333"/>
<path d="M12.9269 16.1886L12.9102 1.62109L28.0052 10.3357L28.022 24.9032L12.9269 16.1886Z" fill="url(#paint0_linear_445_591)"/>
<path d="M12.9262 16.0166L0.410156 23.2407L15.5052 31.9574L28.0213 24.7312L12.9262 16.0166Z" fill="black"/>
<path d="M13.0036 17.8086L3.67773 23.1927L15.4297 29.9772L24.7556 24.5931L13.0036 17.8086Z" fill="white"/>
<path d="M0.426903 35.8866L0.410156 23.2407L15.5052 31.9574L15.522 44.6011L0.426903 35.8866Z" fill="#4F4F4F"/>
<path d="M27.9907 37.3292L15.4746 44.5554L15.506 31.9577L28.0221 24.7314L27.9907 37.3292Z" fill="#4F4F4F"/>
<path opacity="0.4" d="M27.9907 37.3292L15.4746 44.5554L15.506 31.9577L28.0221 24.7314L27.9907 37.3292Z" fill="#333333"/>
<path d="M29.6407 23.9274L29.624 9.35986L28.0059 10.3354L28.0226 24.9029L29.6407 23.9274Z" fill="#4F4F4F"/>
<path opacity="0.3" d="M29.6407 23.9274L29.624 9.35986L28.0059 10.3354L28.0226 24.9029L29.6407 23.9274Z" fill="#4F4F4F"/>
<path d="M14.5283 0.643066L12.9102 1.62066L28.0052 10.3352L29.6234 9.35973L14.5283 0.643066Z" fill="#4F4F4F"/>
<path d="M63.2267 22.5235C63.2267 23.9517 62.9807 25.258 62.4864 26.4402C61.992 27.6223 61.309 28.6349 60.4325 29.4756C59.5561 30.3186 58.5148 30.9682 57.3064 31.4267C56.0979 31.8853 54.7892 32.1145 53.3778 32.1145C51.9664 32.1145 50.66 31.8853 49.4611 31.4267C48.2623 30.9682 47.2234 30.3162 46.3469 29.4756C45.4705 28.6325 44.785 27.6223 44.2931 26.4402C43.7987 25.258 43.5527 23.9517 43.5527 22.5235C43.5527 21.0787 43.7987 19.7723 44.2931 18.6069C44.7874 17.4414 45.4705 16.4503 46.3469 15.6336C47.2234 14.8168 48.2599 14.1887 49.4611 13.7445C50.66 13.3027 51.9664 13.0806 53.3778 13.0806C54.7892 13.0806 56.1003 13.3027 57.3064 13.7445C58.5148 14.1863 59.5561 14.8168 60.4325 15.6336C61.309 16.4503 61.992 17.4414 62.4864 18.6069C62.9783 19.7723 63.2267 21.0787 63.2267 22.5235ZM58.5578 22.5235C58.5578 21.7402 58.4312 21.0094 58.1757 20.3288C57.9201 19.6481 57.5667 19.0654 57.1177 18.5806C56.6663 18.0958 56.1218 17.7137 55.4842 17.4319C54.8465 17.1501 54.1444 17.0115 53.3802 17.0115C52.6136 17.0115 51.9162 17.1524 51.2881 17.4319C50.6576 17.7137 50.1131 18.0958 49.6546 18.5806C49.196 19.0654 48.8426 19.6481 48.5966 20.3288C48.3506 21.0094 48.2264 21.7402 48.2264 22.5235C48.2264 23.3403 48.353 24.0926 48.6086 24.7828C48.8641 25.4729 49.2175 26.0628 49.6665 26.5572C50.1179 27.0515 50.6576 27.4384 51.2857 27.7178C51.9138 27.9997 52.6136 28.1382 53.3778 28.1382C54.1444 28.1382 54.8394 27.9973 55.4698 27.7178C56.0979 27.4384 56.6425 27.0515 57.1034 26.5572C57.5619 26.0628 57.9201 25.4729 58.1757 24.7828C58.4288 24.0926 58.5578 23.3403 58.5578 22.5235Z" fill="white"/>
<path d="M80.0166 25.2291C80.0166 26.1127 79.8804 26.9653 79.6082 27.7797C79.3359 28.5965 78.9395 29.3153 78.4213 29.9363C77.903 30.5572 77.2678 31.0539 76.5203 31.4289C75.7704 31.8038 74.9202 31.9901 73.9697 31.9901C73.1863 31.9901 72.446 31.8325 71.7486 31.5173C71.0513 31.202 70.5068 30.7721 70.1151 30.2276H70.065V37.7552H65.8809V18.9266H69.862V20.4838H69.9384C70.3301 19.9727 70.8698 19.5261 71.5576 19.144C72.2454 18.7619 73.0598 18.5708 73.9935 18.5708C74.913 18.5708 75.7465 18.7499 76.494 19.1058C77.2415 19.464 77.8767 19.9488 78.395 20.5602C78.9132 21.1716 79.3144 21.8832 79.5939 22.6905C79.8757 23.4977 80.0166 24.3431 80.0166 25.2291ZM75.959 25.2291C75.959 24.8207 75.8945 24.4219 75.768 24.0302C75.6414 23.6386 75.4527 23.2947 75.2067 22.9961C74.9608 22.6976 74.6503 22.4564 74.2754 22.2677C73.9004 22.0815 73.4681 21.9883 72.9738 21.9883C72.4961 21.9883 72.0711 22.0815 71.6985 22.2677C71.3235 22.4564 71.0059 22.7024 70.7408 23.0081C70.4757 23.3138 70.2727 23.6625 70.1294 24.0541C69.9838 24.4458 69.9121 24.8446 69.9121 25.253C69.9121 25.6614 69.9838 26.0602 70.1294 26.4519C70.2727 26.8435 70.4781 27.1922 70.7408 27.4979C71.0035 27.8036 71.3235 28.052 71.6985 28.2382C72.0734 28.4245 72.4985 28.5177 72.9738 28.5177C73.4681 28.5177 73.9004 28.4245 74.2754 28.2382C74.6503 28.052 74.9608 27.8036 75.2067 27.4979C75.4527 27.1922 75.6414 26.8388 75.768 26.4399C75.8969 26.0411 75.959 25.6375 75.959 25.2291Z" fill="white"/>
<path d="M95.2508 25.4323C95.2508 25.6019 95.2508 25.7739 95.2508 25.9434C95.2508 26.113 95.2413 26.2754 95.2246 26.4282H86.0133C86.0467 26.7865 86.1542 27.1089 86.3333 27.3978C86.5124 27.6868 86.7417 27.9376 87.0211 28.1501C87.3029 28.3627 87.6158 28.5298 87.9644 28.6469C88.3131 28.7663 88.6737 28.826 89.0487 28.826C89.7126 28.826 90.2738 28.7018 90.7324 28.4558C91.1909 28.2098 91.5658 27.8898 91.8548 27.4981L94.7637 29.3347C94.169 30.2016 93.3809 30.8703 92.4041 31.3384C91.4249 31.8065 90.2905 32.0405 88.9985 32.0405C88.0456 32.0405 87.1453 31.8924 86.2927 31.5939C85.4425 31.2954 84.6974 30.8631 84.0597 30.2923C83.4221 29.7216 82.9205 29.0218 82.5551 28.1883C82.1897 27.3549 82.0059 26.402 82.0059 25.3297C82.0059 24.2932 82.185 23.3522 82.5408 22.5092C82.899 21.6662 83.3839 20.9521 83.9952 20.367C84.6066 19.7795 85.3302 19.3257 86.1637 19.0009C86.9972 18.6785 87.8999 18.5161 88.8696 18.5161C89.8057 18.5161 90.6631 18.6737 91.4464 18.989C92.2298 19.3042 92.9008 19.758 93.4621 20.355C94.0233 20.9497 94.4603 21.6733 94.7756 22.5235C95.0932 23.3737 95.2508 24.3433 95.2508 25.4323ZM91.3963 23.8251C91.3963 23.1612 91.1885 22.5928 90.7706 22.1151C90.3526 21.6399 89.7293 21.4011 88.8958 21.4011C88.4874 21.4011 88.1125 21.4655 87.7734 21.5921C87.4319 21.7187 87.1357 21.8954 86.8802 22.1151C86.6246 22.3372 86.4217 22.5952 86.2688 22.8937C86.116 23.1922 86.03 23.5027 86.0133 23.8251H91.3963Z" fill="white"/>
<path d="M106.196 31.6323V24.6922C106.196 24.334 106.167 23.9948 106.108 23.6724C106.048 23.35 105.95 23.0634 105.814 22.8175C105.678 22.5715 105.487 22.3756 105.241 22.23C104.995 22.0867 104.684 22.0126 104.309 22.0126C103.934 22.0126 103.607 22.0843 103.328 22.23C103.046 22.3756 102.812 22.5739 102.626 22.8294C102.439 23.0849 102.298 23.3787 102.205 23.7106C102.112 24.0426 102.064 24.3865 102.064 24.7447V31.6347H97.8516V18.9271H101.909V20.6872H101.959C102.112 20.4149 102.313 20.1474 102.559 19.8824C102.805 19.6197 103.094 19.3928 103.426 19.2065C103.758 19.0202 104.118 18.8674 104.51 18.748C104.902 18.6286 105.317 18.5688 105.759 18.5688C106.609 18.5688 107.333 18.7217 107.927 19.0274C108.522 19.3331 109.002 19.7295 109.37 20.2143C109.735 20.6991 109.998 21.2556 110.16 21.8861C110.323 22.5165 110.402 23.1446 110.402 23.7751V31.6347H106.196V31.6323Z" fill="white"/>
<path d="M120.178 31.6322V13.5679H124.567V27.8302H131.56V31.6322H120.178Z" fill="white"/>
<path d="M146.383 25.2294C146.383 26.2683 146.194 27.2068 145.822 28.0499C145.447 28.8929 144.936 29.607 144.291 30.1945C143.644 30.782 142.896 31.2357 142.046 31.5605C141.196 31.8829 140.286 32.0453 139.316 32.0453C138.363 32.0453 137.458 31.8829 136.598 31.5605C135.739 31.2381 134.991 30.782 134.354 30.1945C133.716 29.607 133.21 28.8929 132.835 28.0499C132.46 27.2068 132.273 26.2683 132.273 25.2294C132.273 24.1929 132.46 23.2567 132.835 22.4233C133.21 21.5898 133.716 20.8829 134.354 20.3049C134.991 19.727 135.739 19.2852 136.598 18.9771C137.458 18.6714 138.363 18.5186 139.316 18.5186C140.286 18.5186 141.196 18.6714 142.046 18.9771C142.896 19.2828 143.644 19.7246 144.291 20.3049C144.938 20.8829 145.447 21.5898 145.822 22.4233C146.197 23.2544 146.383 24.1905 146.383 25.2294ZM142.352 25.2294C142.352 24.821 142.282 24.4222 142.149 24.0305C142.013 23.6389 141.817 23.295 141.561 22.9964C141.306 22.6979 140.99 22.4567 140.618 22.268C140.243 22.0817 139.811 21.9886 139.316 21.9886C138.822 21.9886 138.39 22.0817 138.015 22.268C137.64 22.4567 137.329 22.6979 137.083 22.9964C136.837 23.295 136.649 23.6389 136.522 24.0305C136.395 24.4222 136.331 24.821 136.331 25.2294C136.331 25.6378 136.395 26.0366 136.522 26.4283C136.649 26.8199 136.842 27.1734 137.095 27.4862C137.351 27.8015 137.666 28.0522 138.039 28.2385C138.413 28.4248 138.846 28.5179 139.34 28.5179C139.834 28.5179 140.267 28.4248 140.642 28.2385C141.017 28.0522 141.329 27.8015 141.585 27.4862C141.841 27.171 142.032 26.8199 142.158 26.4283C142.287 26.0366 142.352 25.6378 142.352 25.2294Z" fill="white"/>
<path d="M162.51 25.2294C162.51 26.2683 162.321 27.2068 161.949 28.0499C161.574 28.8929 161.063 29.607 160.418 30.1945C159.771 30.782 159.023 31.2357 158.173 31.5605C157.323 31.8829 156.413 32.0453 155.443 32.0453C154.49 32.0453 153.585 31.8829 152.725 31.5605C151.866 31.2381 151.118 30.782 150.481 30.1945C149.843 29.607 149.337 28.8929 148.962 28.0499C148.587 27.2068 148.4 26.2683 148.4 25.2294C148.4 24.1929 148.587 23.2567 148.962 22.4233C149.337 21.5898 149.843 20.8829 150.481 20.3049C151.118 19.727 151.866 19.2852 152.725 18.9771C153.585 18.6714 154.49 18.5186 155.443 18.5186C156.413 18.5186 157.323 18.6714 158.173 18.9771C159.023 19.2828 159.771 19.7246 160.418 20.3049C161.065 20.8829 161.574 21.5898 161.949 22.4233C162.324 23.2544 162.51 24.1905 162.51 25.2294ZM158.479 25.2294C158.479 24.821 158.409 24.4222 158.276 24.0305C158.139 23.6389 157.944 23.295 157.688 22.9964C157.433 22.6979 157.117 22.4567 156.745 22.268C156.37 22.0817 155.938 21.9886 155.443 21.9886C154.949 21.9886 154.517 22.0817 154.142 22.268C153.767 22.4567 153.456 22.6979 153.21 22.9964C152.964 23.295 152.776 23.6389 152.649 24.0305C152.522 24.4222 152.458 24.821 152.458 25.2294C152.458 25.6378 152.522 26.0366 152.649 26.4283C152.776 26.8199 152.969 27.1734 153.222 27.4862C153.478 27.8015 153.793 28.0522 154.166 28.2385C154.54 28.4248 154.973 28.5179 155.467 28.5179C155.961 28.5179 156.394 28.4248 156.769 28.2385C157.144 28.0522 157.456 27.8015 157.712 27.4862C157.968 27.171 158.159 26.8199 158.285 26.4283C158.416 26.0366 158.479 25.6378 158.479 25.2294Z" fill="white"/>
<path d="M169.704 22.0388V26.906C169.704 27.503 169.819 27.952 170.048 28.2505C170.277 28.549 170.691 28.6995 171.285 28.6995C171.488 28.6995 171.706 28.6828 171.935 28.6493C172.164 28.6159 172.355 28.5634 172.508 28.4965L172.558 31.5582C172.269 31.6609 171.904 31.7492 171.462 31.8257C171.02 31.9021 170.578 31.9403 170.134 31.9403C169.284 31.9403 168.57 31.8328 167.99 31.6203C167.412 31.4077 166.948 31.0996 166.6 30.6984C166.251 30.2972 166 29.8196 165.847 29.2655C165.695 28.7114 165.618 28.0929 165.618 27.4099V22.0364H163.576V18.927H165.592V15.5835H169.7V18.927H172.685V22.0412H169.704V22.0388Z" fill="white"/>
</g>
</g>
<defs>
<linearGradient id="paint0_linear_445_591" x1="15.3992" y1="22.9897" x2="23.6046" y2="7.23486" gradientUnits="userSpaceOnUse">
<stop stop-color="white"/>
<stop offset="1"/>
</linearGradient>
<clipPath id="clip0_445_591">
<rect width="173" height="44" fill="white" transform="translate(0 0.5)"/>
</clipPath>
</defs>
</svg>
