<svg width="161" height="131" viewBox="0 0 161 131" fill="none" xmlns="http://www.w3.org/2000/svg">
<g clip-path="url(#clip0_445_690)">
<path fill-rule="evenodd" clip-rule="evenodd" d="M30.8968 116.396H32.1602C36.314 116.396 36.4959 111.131 36.4959 111.131H37.3954V123.469H36.4959C35.9502 119.292 34.5049 117.849 32.1602 117.849H30.7149V129.638H33.2416C38.6588 129.638 40.6397 128.551 41.5493 120.928H42.4488V130.908H22.9631V129.638H26.5711V105.145H23.3168V103.875H42.2669V113.306H41.5493C40.286 104.78 37.7593 105.145 30.8968 105.145V116.396ZM22.9631 116.579V117.666H20.0725V130.543L16.6464 127.829C15.5649 129.272 13.7558 130.726 11.0472 130.726C2.38577 130.726 0.0410156 121.843 0.0410156 116.762C0.0410156 111.142 3.11346 103.154 11.0472 103.154C15.2011 103.154 16.6464 105.328 16.6464 105.328C16.6464 105.511 19.8906 103.154 19.8906 103.154C19.8906 103.154 19.8906 111.314 19.8906 112.951H19.173C18.2735 108.774 15.9187 104.241 11.2292 104.241C4.73053 104.241 4.91245 114.587 4.91245 116.945C4.91245 119.658 4.3768 129.638 11.2292 129.638C12.1388 129.638 15.5649 128.734 16.1006 126.559V117.849H12.4925V116.579H22.9631ZM148.731 120.756V130.726H124.374V129.455H127.446C127.264 129.455 124.556 122.199 124.556 122.199H115.53C115.53 122.199 113.731 126.559 113.913 127.829C114.085 129.455 116.44 129.455 116.794 129.455V130.726H110.305C99.8347 130.726 109.214 118.388 101.28 117.666H96.7623V129.455H100.199V130.726H89.1924V129.455H92.6186V104.973H89.1924V103.702H102.543C107.233 103.885 110.123 105.877 110.123 110.044C110.123 115.857 103.989 117.128 103.989 117.128C103.989 117.3 106.333 117.3 107.779 118.754C108.86 120.024 109.042 122.748 109.042 124.018V128.734C109.042 129.099 108.86 129.638 110.123 129.638C111.559 129.272 112.104 127.28 112.104 127.28C112.104 127.097 120.402 103.154 120.402 103.154H121.847L131.772 129.638H134.481V105.145H131.054V103.885H142.243V105.145H138.806V129.455H139.17C144.587 129.455 146.568 128.368 147.468 120.756H148.731ZM105.788 110.593C105.788 109.505 105.606 105.694 102.361 105.145H96.7623V116.396H101.098C104.524 116.396 105.788 113.499 105.788 110.593ZM124.374 121.111L120.23 109.505L116.258 121.111H124.374ZM76.0132 104.973V116.213H77.2765C81.4203 116.213 81.6022 110.959 81.6022 110.959H82.5118V123.286H81.6022C81.0666 119.119 79.6213 117.666 77.2765 117.666H75.8313V129.455H78.358C83.7752 129.455 85.7561 128.368 86.6556 120.756H87.5652V130.726H68.0693V129.455H71.6774V104.973H68.6151C67.5337 104.973 65.3607 105.145 65.1889 107.148V130.726H64.6432C64.4612 130.726 54.9003 116.762 49.8469 109.505V127.097C49.8469 129.099 52.7374 129.821 54.0008 129.821V130.726H44.4297V129.821C45.6931 129.821 48.5836 129.099 48.5836 127.097V107.148C48.4017 104.973 46.6027 104.973 45.1574 104.973H44.076V103.702H51.1103L63.9256 122.748V107.148C63.7437 104.973 61.3989 104.973 60.4893 104.973H59.7717V103.702H87.2013V113.133H86.4737C85.3922 104.607 82.6836 104.973 75.8313 104.973H76.0132ZM157.211 105.145V129.455H160.819V130.726H149.812V129.455H153.239V105.145H149.812V103.702H160.819V105.145H157.211ZM131.772 87.1876H161.001V95.5313H0.404857V53.4467L9.43016 50.9161C7.9849 48.5583 7.44924 45.4688 8.71258 43.6598C9.794 42.0236 11.9568 40.5703 14.6654 40.5703C14.8474 40.2044 15.0192 40.0316 15.383 39.6658C16.4644 38.5783 17.9097 38.2125 19.5369 38.2125C22.0636 38.3954 24.944 39.6658 27.4706 42.0236L31.2607 36.2205L30.3612 35.4888L30.1792 35.316C29.8154 34.9502 29.2798 34.2184 29.2798 33.131C29.2798 32.0436 30.3612 30.7732 32.7059 30.5903L35.9603 30.2346C37.5774 30.2346 39.7402 29.3199 39.7402 27.5109C39.7402 26.7894 39.2045 26.2406 38.4769 26.2406C37.9412 26.2406 36.314 27.328 35.7784 27.6938C34.3331 28.7813 32.8878 29.5028 31.2607 29.5028C28.9159 29.5028 27.1169 27.8768 27.1169 25.6918C27.1169 25.1531 27.2988 24.4316 27.6526 23.8828C27.1135 23.3407 26.7531 22.6158 26.5711 21.7079C26.5711 20.9762 26.5712 19.7058 27.6526 18.4456C28.734 16.9923 30.1792 15.1731 31.2607 12.6324V12.4495L32.1703 10.6405C32.3455 10.2746 32.7059 9.91213 33.2517 9.55304C33.9693 8.09975 34.8688 6.46352 35.9603 5.20331C36.8598 3.93295 38.305 3.01829 39.2045 2.29672C40.286 1.57515 41.7312 1.02636 42.9946 0.66049C46.9665 -0.609874 52.0199 0.304788 56.5275 3.01829C59.7717 5.02038 62.1165 8.28268 63.5617 12.0938V11.9108C65.3708 6.46352 69.8784 3.01829 75.1137 3.01829H155.594L154.684 4.65452C151.982 10.4609 147.471 13.3641 141.151 13.3641H140.252C137.543 18.6184 133.217 21.525 127.082 21.525C124.556 26.9621 120.038 29.6858 113.903 29.6858H90.0919C90.2738 30.2346 90.2738 30.9561 90.2738 31.6879C90.2738 32.2265 90.2738 32.7753 90.0919 33.3139C91.8909 33.4969 94.0537 33.6798 96.4086 33.8627C99.8347 34.2184 103.261 34.4014 104.888 34.5843C105.606 34.7672 106.505 34.7672 107.233 34.7672C111.023 34.9502 113.903 35.1331 118.057 35.8547C124.013 36.9455 128.885 39.6658 132.671 44.0155C134.117 45.6517 135.38 47.4607 136.643 49.6457C137.907 52.0035 139.17 54.3613 140.252 56.9021V57.0748C140.615 57.8066 140.797 58.5281 141.151 59.2599L141.515 60.1644C143.324 64.88 144.759 68.6911 146.204 71.5875C149.459 70.1444 153.421 71.0489 155.048 73.7725C155.412 74.3112 155.594 74.8599 155.947 75.3986C156.675 76.6689 157.211 77.7564 158.474 79.0267L160.465 81.2016L157.756 81.7504C156.675 81.9333 155.594 82.1163 154.684 82.1163C147.65 82.1163 144.042 75.5815 140.433 66.1503V79.2097C140.797 82.472 140.07 83.7423 135.198 85.7444L131.772 87.0148V87.1876ZM148.377 74.6669C149.994 77.2076 151.985 78.6609 154.512 78.8336C154.148 78.1121 153.784 77.5734 153.421 77.0246C153.067 76.6588 152.885 76.1201 152.521 75.5713C151.803 74.4839 149.812 73.9453 148.377 74.6669ZM123.111 86.8217L134.117 82.289C134.662 82.1061 136.643 81.2016 137.189 80.6528C137.189 80.4699 137.189 58.7009 137.189 57.7964C136.461 55.9772 135.562 54.1683 134.662 52.532C121.665 50.906 118.239 49.4527 111.559 38.5682C110.295 38.5682 108.86 38.3852 107.415 38.3852C106.505 38.2023 105.788 38.2023 104.888 38.2023C103.079 38.0194 99.8347 37.8466 96.2266 37.4807C93.1542 37.2978 90.0919 37.1149 88.2828 36.9319C86.8375 38.2023 85.0385 39.1068 83.0475 39.1068C81.4304 39.1068 80.1671 38.5682 77.9941 37.6637C77.4585 37.4807 77.0946 37.2978 76.559 37.1149L79.0857 34.7571C79.6213 34.94 79.9852 35.1229 80.5208 35.3059C81.6123 35.8445 82.3299 36.0274 83.0475 36.0274C85.2204 36.0274 87.0194 34.3912 87.0194 32.2163C87.0194 30.946 86.8375 30.4073 86.6556 30.2244H75.6494L77.2765 26.9621H87.7471C92.0728 26.9621 94.9633 25.5088 97.1261 22.2465H79.9852L81.6123 18.9741H100.916C105.242 18.9741 108.314 17.348 110.477 14.0755H83.7752L85.3922 10.8132H114.813C118.957 10.8132 121.847 9.35995 124.01 6.46352H74.9318C71.1418 6.46352 67.8975 9.00424 66.6342 12.9881L63.9256 22.9681C63.1979 25.8645 62.2984 28.5882 61.7627 30.2244C63.7437 31.3118 65.9065 33.3038 65.9065 37.4807C65.9065 41.6475 63.1979 44.7371 59.9536 46.3631C60.6746 47.4539 61.0351 48.7243 61.0351 50.1742C61.0351 53.8024 58.3265 56.709 54.9003 57.2476C54.3646 58.518 54.0008 59.7883 53.2731 60.703V75.0327C53.2731 77.0246 51.656 78.8336 49.4932 78.8336H48.9474C48.0479 78.8336 46.0569 79.0166 44.9755 80.4699C44.0726 81.7436 44.0726 83.7389 44.9755 86.4558C46.9665 87.0046 50.0288 86.4558 51.4741 84.4639L52.0199 83.7322H52.9194C55.2641 83.7322 57.9727 83.7322 58.8722 82.8277C59.0541 82.6447 59.418 82.289 59.418 80.4699C59.418 80.104 59.418 78.6609 61.217 77.2076C59.2361 72.1261 61.3989 63.9653 61.5808 63.0608L61.9346 61.7904H63.1979C70.4242 62.1461 74.5679 60.703 79.6213 59.0668C80.8846 58.7009 82.148 58.1623 83.5932 57.7964C84.139 57.6135 89.728 55.8045 94.2356 55.8045C94.5995 55.8045 98.7533 55.8045 102.897 58.518L103.079 58.7009C107.051 61.2416 110.659 63.5994 126.537 64.8698C130.691 65.2357 131.408 68.315 131.59 69.4025V69.5854L132.318 77.5734L123.474 79.5654C122.565 79.7483 122.029 80.2869 121.665 81.2016C121.13 82.8277 121.665 84.8298 123.111 86.8217ZM123.111 22.2465H100.916C100.017 24.0555 98.9352 25.6918 97.49 26.9621H113.903C118.239 26.9621 121.301 25.5088 123.111 22.2465ZM136.28 14.0755H114.085C113.186 16.0776 111.922 17.7037 110.477 18.9741H126.901C131.408 18.9741 134.481 17.348 136.28 14.0755ZM124.556 10.8132H140.979C145.123 10.8132 148.013 9.35995 150.176 6.46352H128.164C127.264 8.08958 126.001 9.54288 124.556 10.8132ZM38.5274 7.3172C39.2045 7.18508 40.0333 7.18508 41.0035 7.18508C41.7312 7.18508 42.4488 7.36802 43.1765 7.36802L49.1293 3.73985C47.3202 3.37399 45.5212 3.37399 43.8941 3.73985C42.8126 3.92279 41.7312 4.46142 41.0035 5.01022C40.104 5.73179 39.2045 6.46352 38.6588 7.18508C38.5981 7.24606 38.5577 7.28671 38.5274 7.3172ZM38.305 7.36802C38.4162 7.36802 38.4567 7.36802 38.5274 7.3172C38.4465 7.33075 38.3724 7.34769 38.305 7.36802ZM31.9884 33.4867C32.7059 34.0355 35.5964 34.2184 35.7784 34.2184H35.9603C40.4679 34.3912 45.875 31.8606 45.875 27.8666C45.875 26.5963 45.5212 25.3259 45.3393 24.0555C45.1574 23.151 44.9755 22.2465 44.9755 21.5148C44.9755 19.5229 46.4207 17.8866 48.5836 17.1651L47.866 13.354L48.9474 12.8052C51.4741 11.362 52.9194 8.45545 52.5555 5.91472C52.5555 5.91472 52.3736 5.73179 52.3736 5.54885L44.076 10.6303H43.5302C42.6307 10.4474 41.9131 10.4474 41.1855 10.4474C37.3954 10.4474 35.4145 11.9007 35.0507 12.4495L34.697 12.9881C33.6054 16.6163 37.5774 14.9902 38.4769 15.7118C39.3865 16.4333 37.7593 17.8866 37.7593 17.8866C37.3954 18.2525 37.0417 18.7911 36.314 18.7911C35.5964 18.7911 35.0507 18.4354 35.0507 17.8866C35.0507 16.9821 34.3331 16.4333 33.6054 16.4333C32.8878 16.4333 32.7059 16.7992 32.1703 17.5208C31.4426 18.7911 30.725 19.7058 29.9973 20.4274C29.9973 20.6103 29.8154 20.7932 29.8154 20.9762C29.8154 21.1489 30.3612 21.6977 30.725 21.8807L32.3421 22.9681L30.5431 25.5088C30.5431 25.6918 30.5431 25.6918 30.5431 25.6918C30.5431 25.8645 30.9069 26.2304 31.2607 26.2304C31.8064 26.2304 32.7059 25.6918 33.7873 24.96C35.4145 23.8726 37.0417 22.9681 38.305 22.9681C40.6498 22.9681 42.4488 25.3259 42.4488 27.8666C42.0951 31.4948 38.4769 32.9481 35.0507 33.1208L32.1703 32.9481C31.9883 32.9481 31.8064 33.1208 31.8064 33.3038C31.8064 33.4867 31.8064 33.6696 31.9884 33.4867ZM12.6744 50.1742L19.355 48.3652L38.305 53.4467V56.709C40.104 56.3431 41.7312 55.6215 42.6307 54.717L45.3393 51.9934L45.5212 55.8045C45.5212 56.1602 45.5212 57.2476 45.5212 57.6135C45.5212 59.2497 45.5212 60.5201 45.5212 61.7904C49.8469 61.2416 51.1103 59.2497 52.3736 55.2557L52.7374 54.1682H54.0008C56.1636 54.1682 57.9727 52.532 57.9727 50.3572C57.9727 49.0868 57.245 47.8164 56.1636 47.0949L52.7374 44.7371L56.8913 44.0053C59.7717 43.4667 62.8442 40.926 62.8442 37.4807C62.8442 34.5741 61.3989 33.6696 59.2361 32.3993L57.9727 31.6777L58.5084 30.4073C59.0541 28.9541 60.1356 25.8645 60.8531 22.9681L61.0351 22.2465C61.3989 20.4274 61.7627 18.7911 61.5808 17.5208C61.217 13.354 59.2361 9.35995 56.1636 7.00215C56.3455 10.0917 54.5364 13.5369 51.8379 15.5288L52.7374 20.6103H50.7565C49.4932 20.6103 48.5836 21.3319 48.5836 22.0636C48.5836 22.4193 48.7655 23.151 48.9474 24.0555C49.1293 25.3259 49.4932 26.7792 49.4932 28.4053V28.5882C49.4932 34.3912 43.1765 38.0194 37.0417 38.0194H36.8598C36.314 38.0194 35.4145 38.0194 34.3331 37.8466L29.9973 44.7371C30.1792 44.92 30.5431 45.4586 30.725 45.8245C30.725 46.0074 30.9069 46.1904 30.9069 46.1904L31.0787 46.3631C31.2607 46.729 31.6245 47.2778 31.8064 47.6335V47.8164C31.2607 48.7311 30.5431 49.8185 29.8154 50.723C29.8154 50.5401 28.734 49.0868 28.734 48.9039C28.734 48.9039 28.5622 48.5482 28.3803 48.3652C28.1983 48.1823 28.1983 47.9994 28.0164 47.8164C27.4706 46.9119 26.7531 45.8245 26.0355 45.1029C24.0445 42.9179 21.5178 41.4748 19.5369 41.4748C18.8092 41.4748 18.0916 41.6475 17.7278 42.0134C17.5459 42.1963 17.374 42.5622 17.1921 42.9179L16.6464 44.1883L15.2011 44.0053C13.4021 43.8326 11.9568 44.5541 11.2393 45.6416C10.8754 46.1904 11.2393 48.7311 12.6744 50.1742ZM33.2517 87.0046L19.5369 83.3765L5.82206 87.0046H33.2517ZM35.0507 55.9772L19.355 51.8104L3.65922 55.9772V84.098L19.355 79.9312L35.0507 84.098V55.9772ZM49.1293 75.7543H49.6751C50.0322 75.7543 50.2108 75.5714 50.2108 75.2055V63.9551C48.4118 64.6869 46.2388 65.2255 43.3584 65.2255H41.3674L41.7312 63.2336C41.7312 62.8677 41.9131 62.6949 41.9131 62.3291C42.0951 61.2416 42.277 60.1542 42.277 59.0668C41.0103 59.6088 39.7469 59.9713 38.487 60.1542V86.9945H41.9131C40.8317 83.5492 41.0137 80.6528 42.4488 78.6507C43.7121 76.6588 46.2388 75.5714 49.1293 75.7543ZM85.2204 76.8417L90.6275 77.9291L93.8819 74.301C95.1452 73.0306 95.1452 72.3091 94.4175 71.3944V71.2115L87.7471 60.1542C85.938 60.6928 84.4927 61.0587 84.4927 61.0587C83.2294 61.5973 81.9661 61.9632 80.7027 62.3291C76.0132 63.7824 71.5056 65.2255 64.6432 65.2255H64.4713C63.9256 68.498 63.0261 74.301 64.8251 77.0246L65.9065 78.6507L64.1075 79.3824C63.0261 79.9211 62.8442 80.2869 62.8442 80.4699C62.8442 81.9232 62.6622 83.7322 61.3989 85.1855C60.3175 86.2729 58.6903 86.8217 56.5275 86.9945H76.9228C76.1951 83.1935 77.2765 80.8256 78.5399 79.3824C80.1671 77.5633 82.8757 76.4758 85.2204 76.8417ZM80.349 87.1774H93.3361L104.706 75.0226C106.151 73.3965 105.788 72.1261 105.606 71.7603C105.252 70.4899 103.625 67.2276 102.361 64.6869C101.816 63.2336 101.098 61.9632 100.734 61.0587C97.49 59.2395 94.4175 59.2395 94.4175 59.2395C93.518 59.2395 92.4366 59.2395 91.5371 59.4225L97.49 69.2195C99.8347 72.6648 97.49 75.3884 96.7623 76.2929L92.2547 81.1914H91.1733L84.8566 80.104C83.5932 80.104 82.148 80.2869 81.0666 81.5573C79.9851 82.8277 79.8032 84.6367 80.349 86.9945V87.1774ZM118.421 79.9211C119.139 77.9291 120.766 76.6588 122.747 76.2929L128.71 75.0226L128.164 70.1342C127.982 68.8638 127.628 68.498 126.183 68.315C114.813 67.4105 109.214 65.7743 105.606 64.1381C106.869 66.8617 108.132 69.4025 108.496 70.6728C109.396 72.8477 108.678 75.2055 106.869 77.2076L97.6719 87.0046H119.32C118.057 84.6367 117.703 82.1061 118.421 79.9211ZM115.712 39.2897C120.584 46.729 123.656 47.9994 132.318 49.0868C131.59 48.1823 131.054 47.2778 130.327 46.5461C127.082 42.9179 122.929 40.5601 117.703 39.6556C116.976 39.4727 116.44 39.2897 115.712 39.2897ZM31.6245 63.7824L21.1641 61.0587V57.6135L31.6245 60.3371V63.7824ZM7.26732 60.3371L17.7278 57.6135V61.0587L7.26732 63.7824V60.3371ZM7.26732 67.2276L17.7278 64.5039V67.9492L7.26732 70.6728V67.2276ZM31.6245 70.6728L21.1641 67.9492V64.5039L31.6245 67.2276V70.6728ZM31.6245 77.5633L21.1641 74.8498V71.3944L31.6245 74.1181V77.5633ZM7.26732 74.1181L17.7278 71.3944V74.8396L7.26732 77.5633V74.1181Z" fill="white"/>
</g>
<defs>
<clipPath id="clip0_445_690">
<rect width="161" height="131" fill="white"/>
</clipPath>
</defs>
</svg>
