<svg width="25" height="25" viewBox="0 0 25 25" fill="none" xmlns="http://www.w3.org/2000/svg">
<path d="M6.5 11.5879C6.5 11.2924 6.5582 10.9998 6.67127 10.7269C6.78434 10.4539 6.95008 10.2058 7.15901 9.9969C7.36794 9.78797 7.61598 9.62223 7.88896 9.50916C8.16194 9.39609 8.45453 9.33789 8.75 9.33789C9.04547 9.33789 9.33806 9.39609 9.61104 9.50916C9.88402 9.62223 10.1321 9.78797 10.341 9.9969C10.5499 10.2058 10.7157 10.4539 10.8287 10.7269C10.9418 10.9998 11 11.2924 11 11.5879C11 12.1846 10.7629 12.7569 10.341 13.1789C9.91903 13.6008 9.34674 13.8379 8.75 13.8379C8.15326 13.8379 7.58097 13.6008 7.15901 13.1789C6.73705 12.7569 6.5 12.1846 6.5 11.5879ZM8.75 10.8379C8.55109 10.8379 8.36032 10.9169 8.21967 11.0576C8.07902 11.1982 8 11.389 8 11.5879C8 11.7868 8.07902 11.9776 8.21967 12.1182C8.36032 12.2589 8.55109 12.3379 8.75 12.3379C8.94891 12.3379 9.13968 12.2589 9.28033 12.1182C9.42098 11.9776 9.5 11.7868 9.5 11.5879C9.5 11.389 9.42098 11.1982 9.28033 11.0576C9.13968 10.9169 8.94891 10.8379 8.75 10.8379ZM8.75 14.8379C8.15326 14.8379 7.58097 15.0749 7.15901 15.4969C6.73705 15.9189 6.5 16.4912 6.5 17.0879C6.5 17.6846 6.73705 18.2569 7.15901 18.6789C7.58097 19.1008 8.15326 19.3379 8.75 19.3379C9.34674 19.3379 9.91903 19.1008 10.341 18.6789C10.7629 18.2569 11 17.6846 11 17.0879C11 16.4912 10.7629 15.9189 10.341 15.4969C9.91903 15.0749 9.34674 14.8379 8.75 14.8379ZM8 17.0879C8 16.889 8.07902 16.6982 8.21967 16.5576C8.36032 16.4169 8.55109 16.3379 8.75 16.3379C8.94891 16.3379 9.13968 16.4169 9.28033 16.5576C9.42098 16.6982 9.5 16.889 9.5 17.0879C9.5 17.2868 9.42098 17.4776 9.28033 17.6182C9.13968 17.7589 8.94891 17.8379 8.75 17.8379C8.55109 17.8379 8.36032 17.7589 8.21967 17.6182C8.07902 17.4776 8 17.2868 8 17.0879ZM12.5 11.5879C12.5 11.389 12.579 11.1982 12.7197 11.0576C12.8603 10.9169 13.0511 10.8379 13.25 10.8379H17.75C17.9489 10.8379 18.1397 10.9169 18.2803 11.0576C18.421 11.1982 18.5 11.389 18.5 11.5879C18.5 11.7868 18.421 11.9776 18.2803 12.1182C18.1397 12.2589 17.9489 12.3379 17.75 12.3379H13.25C13.0511 12.3379 12.8603 12.2589 12.7197 12.1182C12.579 11.9776 12.5 11.7868 12.5 11.5879ZM13.25 16.3379C13.0511 16.3379 12.8603 16.4169 12.7197 16.5576C12.579 16.6982 12.5 16.889 12.5 17.0879C12.5 17.2868 12.579 17.4776 12.7197 17.6182C12.8603 17.7589 13.0511 17.8379 13.25 17.8379H17.75C17.9489 17.8379 18.1397 17.7589 18.2803 17.6182C18.421 17.4776 18.5 17.2868 18.5 17.0879C18.5 16.889 18.421 16.6982 18.2803 16.5576C18.1397 16.4169 17.9489 16.3379 17.75 16.3379H13.25ZM6.5 7.58789C6.5 7.38898 6.57902 7.19821 6.71967 7.05756C6.86032 6.91691 7.05109 6.83789 7.25 6.83789H17.75C17.9489 6.83789 18.1397 6.91691 18.2803 7.05756C18.421 7.19821 18.5 7.38898 18.5 7.58789C18.5 7.7868 18.421 7.97757 18.2803 8.11822C18.1397 8.25887 17.9489 8.33789 17.75 8.33789H7.25C7.05109 8.33789 6.86032 8.25887 6.71967 8.11822C6.57902 7.97757 6.5 7.7868 6.5 7.58789ZM6.75 3.83789C5.88805 3.83789 5.0614 4.1803 4.4519 4.78979C3.84241 5.39929 3.5 6.22594 3.5 7.08789V18.5879C3.5 19.4498 3.84241 20.2765 4.4519 20.886C5.0614 21.4955 5.88805 21.8379 6.75 21.8379H18.25C19.112 21.8379 19.9386 21.4955 20.5481 20.886C21.1576 20.2765 21.5 19.4498 21.5 18.5879V7.08789C21.5 6.22594 21.1576 5.39929 20.5481 4.78979C19.9386 4.1803 19.112 3.83789 18.25 3.83789H6.75ZM5 7.08789C5 6.12189 5.784 5.33789 6.75 5.33789H18.25C19.216 5.33789 20 6.12189 20 7.08789V18.5879C20 19.052 19.8156 19.4971 19.4874 19.8253C19.1592 20.1535 18.7141 20.3379 18.25 20.3379H6.75C6.28587 20.3379 5.84075 20.1535 5.51256 19.8253C5.18437 19.4971 5 19.052 5 18.5879V7.08789Z" fill="#E1E1E1"/>
</svg>
