<svg width="24" height="25" viewBox="0 0 24 25" fill="none" xmlns="http://www.w3.org/2000/svg">
<path d="M19 2.83765V3.96265M19 3.96265V5.08765M19 3.96265H20.125M19 3.96265H17.875M21.25 5.46265V6.21265M21.25 6.21265V6.96265M21.25 6.21265H22M21.25 6.21265H20.5M7.422 13.7876C8.19372 15.3814 9.48236 16.6669 11.078 17.4346C11.1956 17.4902 11.3257 17.5143 11.4554 17.5044C11.5851 17.4946 11.7101 17.4513 11.818 17.3786L14.163 15.8126C14.2665 15.7425 14.386 15.6996 14.5105 15.6881C14.635 15.6765 14.7604 15.6967 14.875 15.7466L19.262 17.6316C19.412 17.694 19.5373 17.8039 19.6186 17.9445C19.7 18.0851 19.7328 18.2486 19.712 18.4096C19.5729 19.4949 19.0432 20.4923 18.2219 21.2153C17.4007 21.9383 16.3441 22.3373 15.25 22.3376C11.8685 22.3376 8.62548 20.9943 6.23439 18.6033C3.8433 16.2122 2.5 12.9692 2.5 9.58765C2.50012 8.49333 2.899 7.43655 3.622 6.61508C4.345 5.79361 5.34256 5.26375 6.428 5.12465C6.58909 5.10387 6.75254 5.13668 6.89314 5.218C7.03374 5.29933 7.14368 5.42465 7.206 5.57465L9.091 9.97165C9.14004 10.0846 9.1605 10.208 9.15056 10.3308C9.14062 10.4536 9.10059 10.572 9.034 10.6756L7.469 13.0556C7.39914 13.1634 7.35814 13.2873 7.34991 13.4155C7.34168 13.5437 7.3665 13.6718 7.422 13.7876ZM17.252 10.3146L16.352 12.7566C16.3255 12.8287 16.2776 12.8909 16.2146 12.9348C16.1517 12.9788 16.0768 13.0023 16 13.0023C15.9232 13.0023 15.8483 12.9788 15.7854 12.9348C15.7224 12.8909 15.6745 12.8287 15.648 12.7566L14.748 10.3146C14.729 10.2631 14.6991 10.2162 14.6603 10.1774C14.6214 10.1385 14.5746 10.1086 14.523 10.0896L12.081 9.18965C12.0093 9.16298 11.9474 9.11502 11.9037 9.05219C11.8601 8.98936 11.8367 8.91467 11.8367 8.83815C11.8367 8.76163 11.8601 8.68694 11.9037 8.62411C11.9474 8.56128 12.0093 8.51331 12.081 8.48665L14.523 7.58665C14.5746 7.56769 14.6214 7.53775 14.6603 7.4989C14.6991 7.46005 14.729 7.41322 14.748 7.36165L15.648 4.91865C15.6745 4.84659 15.7224 4.78439 15.7854 4.74045C15.8483 4.69652 15.9232 4.67296 16 4.67296C16.0768 4.67296 16.1517 4.69652 16.2146 4.74045C16.2776 4.78439 16.3255 4.84659 16.352 4.91865L17.252 7.36165C17.271 7.41318 17.301 7.45999 17.3398 7.49883C17.3787 7.53767 17.4255 7.56763 17.477 7.58665L19.919 8.48665C19.9907 8.51331 20.0526 8.56128 20.0963 8.62411C20.1399 8.68694 20.1633 8.76163 20.1633 8.83815C20.1633 8.91467 20.1399 8.98936 20.0963 9.05219C20.0526 9.11502 19.9907 9.16298 19.919 9.18965L17.477 10.0896C17.4253 10.1085 17.3783 10.1384 17.3393 10.1773C17.3002 10.2161 17.2701 10.263 17.251 10.3146H17.252Z" stroke="#E1E1E1" stroke-linecap="round" stroke-linejoin="round"/>
</svg>
